<svg width="104" height="31" viewBox="0 0 104 31" fill="none" xmlns="http://www.w3.org/2000/svg">
<path d="M9.8987 0.060714L11.1768 0V22.4344H9.858H6.53826L6.12747 22.3263L5.55007 21.6505L5.06464 20.8738C5.06464 20.8738 4.6258 18.0695 3.77939 16.4317C3.14049 15.1954 1.67234 13.4685 1.67234 13.4685C1.67234 13.4685 1.12129 12.6201 0.91441 12.0314C0.710313 11.4507 0.622479 10.5006 0.622479 10.5006L0.47481 9.88215L0.353516 8.7503L0.47481 7.54213L0.815415 6.64258L1.49035 5.04949L2.11128 4.05172L3.16291 2.94647C3.16291 2.94647 3.96063 2.16096 4.58294 1.76505C5.35113 1.27632 6.7668 0.799257 6.7668 0.799257L8.1296 0.344768L9.8987 0.060714Z" fill="white"/>
<path d="M9.8987 0.060714L11.1768 0V22.4344H9.858H6.53826L6.12747 22.3263L5.55007 21.6505L5.06464 20.8738C5.06464 20.8738 4.6258 18.0695 3.77939 16.4317C3.14049 15.1954 1.67234 13.4685 1.67234 13.4685C1.67234 13.4685 1.12129 12.6201 0.91441 12.0314C0.710313 11.4507 0.622479 10.5006 0.622479 10.5006L0.47481 9.88215L0.353516 8.7503L0.47481 7.54213L0.815415 6.64258L1.49035 5.04949L2.11128 4.05172L3.16291 2.94647C3.16291 2.94647 3.96063 2.16096 4.58294 1.76505C5.35113 1.27632 6.7668 0.799257 6.7668 0.799257L8.1296 0.344768L9.8987 0.060714Z" fill="white"/>
<path d="M12.4549 0.060714L11.1769 0V22.4344H12.4956H15.8153L16.2261 22.3263L16.8035 21.6505L17.2889 20.8738C17.2889 20.8738 17.7278 18.0695 18.5742 16.4317C19.2131 15.1954 20.6812 13.4685 20.6812 13.4685C20.6812 13.4685 21.2322 12.6201 21.4391 12.0314C21.6432 11.4507 21.731 10.5006 21.731 10.5006L21.8787 9.88215L22 8.7503L21.8787 7.54213L21.5381 6.64258L20.8632 5.04949L20.2423 4.05172L19.1906 2.94647C19.1906 2.94647 18.3929 2.16096 17.7706 1.76505C17.0025 1.27632 15.5868 0.799257 15.5868 0.799257L14.224 0.344768L12.4549 0.060714Z" fill="white"/>
<path d="M12.4549 0.060714L11.1769 0V22.4344H12.4956H15.8153L16.2261 22.3263L16.8035 21.6505L17.2889 20.8738C17.2889 20.8738 17.7278 18.0695 18.5742 16.4317C19.2131 15.1954 20.6812 13.4685 20.6812 13.4685C20.6812 13.4685 21.2322 12.6201 21.4391 12.0314C21.6432 11.4507 21.731 10.5006 21.731 10.5006L21.8787 9.88215L22 8.7503L21.8787 7.54213L21.5381 6.64258L20.8632 5.04949L20.2423 4.05172L19.1906 2.94647C19.1906 2.94647 18.3929 2.16096 17.7706 1.76505C17.0025 1.27632 15.5868 0.799257 15.5868 0.799257L14.224 0.344768L12.4549 0.060714Z" fill="white"/>
<rect x="9.44275" y="4.97845" width="3.46771" height="9.89158" fill="#43C552"/>
<rect x="5.28162" y="11.3789" width="2.90929" height="11.7902" transform="rotate(-90 5.28162 11.3789)" fill="#43C552"/>
<rect width="9.72329" height="0.97034" rx="0.48517" transform="matrix(0.999056 -0.0434489 0.0616701 0.998097 6.32861 23.046)" fill="black"/>
<rect width="9.72329" height="0.97034" rx="0.48517" transform="matrix(0.999056 -0.0434489 0.0616701 0.998097 6.38855 24.2859)" fill="black"/>
<rect width="9.72329" height="0.97034" rx="0.48517" transform="matrix(0.999056 -0.0434489 0.0616701 0.998097 6.42725 25.522)" fill="black"/>
<rect width="9.72329" height="0.97034" rx="0.48517" transform="matrix(0.999056 -0.0434489 0.0616701 0.998097 6.42725 26.7511)" fill="black"/>
<path d="M10.9777 27.8612L11.6085 27.8286L15.5419 27.7196C15.5419 27.7196 15.7955 27.7718 15.848 27.8909C15.9427 28.1058 15.5419 28.5057 15.5419 28.5057L14.4101 29.5019L13.1299 30.6927L12.6104 30.9999H11.7569H10.9777V27.8612Z" fill="black"/>
<path d="M10.9777 27.8611L10.3102 27.8909L8.50067 27.9765L6.96997 28.031C6.96997 28.031 6.76588 28.0699 6.76588 28.4201C6.76588 28.6456 7.16479 28.9416 7.16479 28.9416L7.87911 29.5876L9.13424 30.6928L9.57922 31H10.3102H10.9777V27.8611Z" fill="black"/>
<path d="M44.1059 21.0035C44.1059 21.3102 44.0393 21.5969 43.9059 21.8635C42.5326 21.7702 41.5993 21.7235 41.1059 21.7235L39.0059 21.8635C39.0059 21.5569 39.0726 21.2702 39.2059 21.0035C39.5926 20.9102 39.9593 20.7769 40.3059 20.6035C39.8926 18.4835 39.6526 17.2769 39.5859 16.9835C38.0259 16.9435 36.9926 16.9235 36.4859 16.9235C35.9926 16.9235 35.4126 16.9502 34.7459 17.0035L32.9859 20.6035L34.7059 21.0035C34.7059 21.3102 34.6393 21.5969 34.5059 21.8635C33.4393 21.7702 32.6593 21.7235 32.1659 21.7235L30.2659 21.8635C30.2659 21.5569 30.3326 21.2702 30.4659 21.0035C30.8926 20.8835 31.2859 20.6969 31.6459 20.4435C34.1393 16.0435 36.1326 12.1902 37.6259 8.88353L37.4659 8.24353C38.0393 7.96353 38.6526 7.82353 39.3059 7.82353C40.5593 13.4902 41.6059 17.7835 42.4459 20.7035L44.1059 21.0035ZM35.2459 15.9635C35.8726 16.0035 36.5126 16.0235 37.1659 16.0235C37.8326 16.0235 38.5659 16.0102 39.3659 15.9835C39.2059 15.2235 38.7659 13.3969 38.0459 10.5035C37.3393 11.7969 36.4059 13.6169 35.2459 15.9635ZM44.5634 13.4235C44.5634 13.1169 44.6301 12.8302 44.7634 12.5635C45.5234 12.4569 46.2634 12.2435 46.9834 11.9235C47.1701 11.9235 47.3368 12.0102 47.4834 12.1835C47.6301 12.3435 47.7034 12.5569 47.7034 12.8235C47.3968 15.4235 47.1901 17.9569 47.0834 20.4235H48.6834C48.6834 20.7302 48.6168 21.0169 48.4834 21.2835C47.5901 21.3902 46.7834 21.6035 46.0634 21.9235C45.8634 21.9235 45.6901 21.8502 45.5434 21.7035C45.4101 21.5569 45.3434 21.3302 45.3434 21.0235C45.6368 19.1569 45.8901 16.6235 46.1034 13.4235H44.5634ZM46.1434 8.70353C46.2101 8.50353 46.3701 8.34353 46.6234 8.22353C46.8768 8.0902 47.1368 8.02354 47.4034 8.02354C47.6701 8.02354 47.8768 8.08354 48.0234 8.20354C48.1834 8.32353 48.2634 8.45687 48.2634 8.60353L48.1634 9.32353C48.0168 9.72353 47.5901 9.92353 46.8834 9.92353C46.6168 9.92353 46.4101 9.86353 46.2634 9.74353C46.1301 9.62353 46.0634 9.48353 46.0634 9.32353L46.1434 8.70353ZM59.9256 20.4235C59.9256 20.7302 59.859 21.0169 59.7256 21.2835C58.8323 21.3902 58.0256 21.6035 57.3056 21.9235C57.1056 21.9235 56.9323 21.8502 56.7856 21.7035C56.6523 21.5569 56.5856 21.3302 56.5856 21.0235L56.9656 18.1635L56.7656 18.0435C56.2723 19.2435 55.7723 20.1769 55.2656 20.8435C54.759 21.4969 54.0923 21.8235 53.2656 21.8235C52.439 21.8235 51.7456 21.5235 51.1856 20.9235C50.6256 20.3102 50.3456 19.4835 50.3456 18.4435C50.3456 16.7235 50.859 15.2235 51.8856 13.9435C52.9123 12.6635 54.1856 12.0235 55.7056 12.0235C56.199 12.0235 56.779 12.2302 57.4456 12.6435C57.6456 10.6969 57.779 8.92353 57.8456 7.32353H56.3056C56.3056 7.01687 56.3723 6.7302 56.5056 6.46353C57.2656 6.35687 58.0056 6.14353 58.7256 5.82353C58.9123 5.82353 59.079 5.9102 59.2256 6.08353C59.3723 6.24353 59.4456 6.45687 59.4456 6.72353C59.0056 10.4435 58.6123 15.0102 58.2656 20.4235H59.9256ZM51.8656 17.8835C51.8656 18.4702 51.999 19.0035 52.2656 19.4835C52.5323 19.9502 52.8323 20.2635 53.1656 20.4235H54.1256C54.939 20.2635 55.9123 18.7969 57.0456 16.0235C57.059 15.9169 57.159 15.0502 57.3456 13.4235H54.0656C53.5456 13.5169 53.0456 14.0369 52.5656 14.9835C52.099 15.9169 51.8656 16.8835 51.8656 17.8835ZM74.3794 21.0035C74.3794 21.3102 74.3127 21.5969 74.1794 21.8635C72.806 21.7702 71.8727 21.7235 71.3794 21.7235L69.2794 21.8635C69.2794 21.5569 69.346 21.2702 69.4794 21.0035C69.866 20.9102 70.2327 20.7769 70.5794 20.6035C70.166 18.4835 69.926 17.2769 69.8594 16.9835C68.2994 16.9435 67.266 16.9235 66.7594 16.9235C66.266 16.9235 65.686 16.9502 65.0194 17.0035L63.2594 20.6035L64.9794 21.0035C64.9794 21.3102 64.9127 21.5969 64.7794 21.8635C63.7127 21.7702 62.9327 21.7235 62.4394 21.7235L60.5394 21.8635C60.5394 21.5569 60.606 21.2702 60.7394 21.0035C61.166 20.8835 61.5594 20.6969 61.9194 20.4435C64.4127 16.0435 66.406 12.1902 67.8994 8.88353L67.7394 8.24353C68.3127 7.96353 68.926 7.82353 69.5794 7.82353C70.8327 13.4902 71.8794 17.7835 72.7194 20.7035L74.3794 21.0035ZM65.5194 15.9635C66.146 16.0035 66.786 16.0235 67.4394 16.0235C68.106 16.0235 68.8394 16.0102 69.6394 15.9835C69.4794 15.2235 69.0394 13.3969 68.3194 10.5035C67.6127 11.7969 66.6794 13.6169 65.5194 15.9635ZM75.0969 7.32353C75.0969 7.01687 75.1635 6.7302 75.2969 6.46353C76.0569 6.35687 76.7969 6.14353 77.5169 5.82353C77.7035 5.82353 77.8702 5.9102 78.0169 6.08353C78.1635 6.24353 78.2369 6.45687 78.2369 6.72353C77.9835 8.85687 77.5835 13.4235 77.0369 20.4235H78.5969C78.5969 20.7302 78.5302 21.0169 78.3969 21.2835C77.5035 21.3902 76.6969 21.6035 75.9769 21.9235C75.7769 21.9235 75.6035 21.8502 75.4569 21.7035C75.3235 21.5569 75.2569 21.3302 75.2569 21.0235C75.9635 15.0902 76.4235 10.5235 76.6369 7.32353H75.0969ZM87.168 20.4235C87.168 20.7302 87.1013 21.0169 86.968 21.2835C85.5546 21.6435 84.5413 21.8235 83.928 21.8235C81.6346 21.8235 80.488 20.5769 80.488 18.0835C80.488 17.1635 80.688 16.2502 81.088 15.3435C81.488 14.4235 82.0946 13.6435 82.908 13.0035C83.7346 12.3502 84.668 12.0235 85.708 12.0235C86.3613 12.0235 86.8413 12.1902 87.148 12.5235C87.4546 12.8569 87.608 13.2635 87.608 13.7435C87.608 16.1435 85.728 17.3835 81.968 17.4635C81.968 19.2902 82.5146 20.2769 83.608 20.4235H87.168ZM86.208 14.2435C86.208 13.8035 86.0213 13.5302 85.648 13.4235H83.808C83.368 13.5969 82.988 13.9835 82.668 14.5835C82.348 15.1702 82.1346 15.8369 82.028 16.5835C83.5613 16.5302 84.6413 16.3102 85.268 15.9235C85.8946 15.5235 86.208 14.9635 86.208 14.2435ZM89.2138 13.4235C89.2138 13.1169 89.2804 12.8302 89.4138 12.5635C90.1738 12.4569 90.9138 12.2435 91.6338 11.9235C91.8204 11.9235 91.9871 12.0102 92.1338 12.1835C92.2804 12.3435 92.3538 12.5569 92.3538 12.8235L92.0138 15.2235L92.2138 15.3435C92.5471 14.5835 93.0604 13.8435 93.7538 13.1235C94.4604 12.3902 95.1404 12.0235 95.7938 12.0235C96.0471 12.0235 96.2738 12.0769 96.4738 12.1835C96.6871 12.2902 96.8338 12.3969 96.9138 12.5035L97.0338 12.6635C96.7004 13.2502 96.4471 13.9035 96.2738 14.6235L96.1738 14.9635C95.9071 15.0835 95.5804 15.1435 95.1938 15.1435C95.3138 14.5969 95.3738 14.2502 95.3738 14.1035C95.3738 13.7302 95.2471 13.5035 94.9938 13.4235C94.7004 13.4235 94.2404 13.8035 93.6138 14.5635C92.9871 15.3102 92.4738 16.1169 92.0738 16.9835C91.9004 18.9835 91.7338 20.5302 91.5738 21.6235C90.9204 21.8235 90.2938 21.9235 89.6938 21.9235C89.9071 21.0302 90.0938 19.9835 90.2538 18.7835C90.4138 17.5835 90.5538 15.7969 90.6738 13.4235H89.2138ZM102.872 12.2235C102.872 12.5435 102.806 12.9435 102.672 13.4235H100.372C100.119 15.8102 99.9589 18.1435 99.8922 20.4235H102.292C102.292 20.7302 102.226 21.0169 102.092 21.2835C100.932 21.3902 99.9922 21.6035 99.2722 21.9235C98.5255 21.9235 98.1522 21.6235 98.1522 21.0235C98.5789 17.7702 98.8455 15.2369 98.9522 13.4235H97.9122C97.9122 13.1169 97.9789 12.8302 98.1122 12.5635C98.1389 12.5502 98.1722 12.5369 98.2122 12.5235C98.2655 12.4969 98.3589 12.4302 98.4922 12.3235C98.6255 12.2169 98.7455 12.0902 98.8522 11.9435C99.1455 11.5302 99.3322 10.9769 99.4122 10.2835C99.8389 10.0435 100.286 9.92353 100.752 9.92353C100.686 10.6835 100.599 11.4835 100.492 12.3235L102.872 12.2235Z" fill="black"/>
</svg>
