<svg width="104" height="104" viewBox="0 0 104 104" fill="none" xmlns="http://www.w3.org/2000/svg">
<path d="M15.2129 15.2108C-5.07228 35.496 -5.07032 68.5003 15.2149 88.7884C35.4952 109.072 68.4994 109.072 88.7856 88.7835C109.07 68.5003 109.068 35.498 88.7876 15.2177C68.4994 -5.07142 35.4952 -5.07142 15.2129 15.2108ZM83.112 83.1119C65.9578 100.265 38.0417 100.267 20.8885 83.1148C3.73036 65.9567 3.73232 38.0406 20.8885 20.8864C38.0408 3.73318 65.9558 3.73122 83.114 20.8884C100.268 38.0416 100.266 65.9577 83.112 83.1119ZM75.5213 72.5638C76.1646 74.0553 75.4792 75.786 73.9887 76.4312C72.4973 77.0774 70.7665 76.39 70.1213 74.8995C67.2835 68.3405 60.5803 64.1004 53.0397 64.1004C45.3235 64.1004 38.5781 68.3365 35.857 74.8927C35.3863 76.0223 34.292 76.7067 33.1398 76.7077C32.7623 76.7077 32.3818 76.6352 32.0122 76.4822C30.5109 75.8576 29.8 74.1357 30.4246 72.6364C34.0616 63.8778 42.9407 58.2189 53.0406 58.2189C62.9278 58.218 71.753 63.8484 75.5213 72.5638ZM29.0567 36.9355C28.3938 35.7824 28.7919 34.3115 29.9451 33.6496L38.8144 28.5545C39.9676 27.8936 41.4385 28.2917 42.1013 29.4439C42.7642 30.5971 42.3661 32.0679 41.2129 32.7298L32.3436 37.8229C31.1895 38.4848 29.7186 38.0877 29.0567 36.9355ZM42.8191 37.0385C44.4743 38.6947 44.4743 41.3815 42.8191 43.0347C41.1639 44.6899 38.4791 44.6899 36.8209 43.0327C35.1657 41.3775 35.1657 38.6927 36.8209 37.0385C38.4771 35.3823 41.1629 35.3823 42.8191 37.0385ZM57.2346 22.6407C57.3532 21.3169 58.5221 20.3393 59.8449 20.4579L70.035 21.3738C71.3588 21.4924 72.3374 22.6613 72.2168 23.986C72.0982 25.3108 70.9303 26.2874 69.6045 26.1678L59.4173 25.2529C58.0926 25.1343 57.114 23.9635 57.2346 22.6407ZM68.1121 36.9689C69.7673 38.6241 69.7673 41.3089 68.1121 42.9631C66.454 44.6203 63.7672 44.6203 62.1139 42.9651C60.4587 41.3109 60.4587 38.6251 62.1139 36.9689C63.7691 35.3117 66.454 35.3117 68.1121 36.9689Z" fill="#828282"/>
</svg>
