<svg width="534" height="355" viewBox="0 0 534 355" fill="none" xmlns="http://www.w3.org/2000/svg">
<path d="M66.4203 211.744H67.5467V219.186H67.639L72.8095 211.744H73.9174V221.199H72.7725V213.775H72.6802L67.5282 221.199H66.4203V211.744ZM78.9413 221.347C78.2765 221.347 77.7041 221.19 77.224 220.876C76.7439 220.562 76.3746 220.129 76.116 219.578C75.8575 219.028 75.7282 218.398 75.7282 217.69C75.7282 216.97 75.8606 216.335 76.1253 215.784C76.393 215.23 76.7654 214.797 77.2425 214.486C77.7226 214.173 78.2827 214.016 78.9229 214.016C79.4214 214.016 79.8708 214.108 80.2709 214.293C80.671 214.477 80.9987 214.736 81.2542 215.068C81.5096 215.4 81.6681 215.788 81.7297 216.231H80.6402C80.5571 215.908 80.3724 215.622 80.0862 215.373C79.8031 215.12 79.4214 214.994 78.9413 214.994C78.5166 214.994 78.1442 215.105 77.8241 215.327C77.5071 215.545 77.2594 215.854 77.0809 216.255C76.9055 216.652 76.8177 217.118 76.8177 217.653C76.8177 218.201 76.9039 218.678 77.0763 219.084C77.2517 219.491 77.4979 219.806 77.8149 220.031C78.135 220.255 78.5104 220.368 78.9413 220.368C79.2245 220.368 79.4814 220.319 79.7123 220.22C79.9431 220.122 80.1385 219.98 80.2986 219.795C80.4586 219.611 80.5725 219.389 80.6402 219.131H81.7297C81.6681 219.549 81.5158 219.926 81.2726 220.262C81.0326 220.594 80.714 220.859 80.317 221.056C79.9231 221.25 79.4645 221.347 78.9413 221.347ZM83.3224 221.199V214.108H88.8991V221.199H87.8096V215.124H84.4118V221.199H83.3224ZM93.7694 221.347C93.1293 221.347 92.5676 221.194 92.0844 220.889C91.6043 220.585 91.2288 220.159 90.958 219.611C90.6903 219.063 90.5564 218.423 90.5564 217.69C90.5564 216.952 90.6903 216.307 90.958 215.756C91.2288 215.205 91.6043 214.777 92.0844 214.473C92.5676 214.168 93.1293 214.016 93.7694 214.016C94.4096 214.016 94.9697 214.168 95.4498 214.473C95.933 214.777 96.3085 215.205 96.5763 215.756C96.8471 216.307 96.9825 216.952 96.9825 217.69C96.9825 218.423 96.8471 219.063 96.5763 219.611C96.3085 220.159 95.933 220.585 95.4498 220.889C94.9697 221.194 94.4096 221.347 93.7694 221.347ZM93.7694 220.368C94.2557 220.368 94.6558 220.243 94.9697 219.994C95.2836 219.745 95.516 219.417 95.6668 219.011C95.8176 218.604 95.893 218.164 95.893 217.69C95.893 217.216 95.8176 216.775 95.6668 216.365C95.516 215.956 95.2836 215.625 94.9697 215.373C94.6558 215.12 94.2557 214.994 93.7694 214.994C93.2832 214.994 92.8831 215.12 92.5692 215.373C92.2552 215.625 92.0229 215.956 91.8721 216.365C91.7213 216.775 91.6459 217.216 91.6459 217.69C91.6459 218.164 91.7213 218.604 91.8721 219.011C92.0229 219.417 92.2552 219.745 92.5692 219.994C92.8831 220.243 93.2832 220.368 93.7694 220.368ZM98.0178 221.199V220.183H98.2763C98.4886 220.183 98.6656 220.142 98.8072 220.059C98.9487 219.972 99.0626 219.823 99.1488 219.611C99.238 219.395 99.3058 219.097 99.3519 218.715C99.4012 218.33 99.4366 217.841 99.4581 217.247L99.5874 214.108H104.315V221.199H103.225V215.124H100.621L100.511 217.653C100.486 218.235 100.434 218.747 100.354 219.191C100.277 219.631 100.158 220 99.9982 220.299C99.8413 220.597 99.632 220.822 99.3704 220.973C99.1088 221.123 98.781 221.199 98.3871 221.199H98.0178ZM107.255 216.675H109.287C110.118 216.675 110.753 216.885 111.193 217.307C111.633 217.729 111.853 218.263 111.853 218.909C111.853 219.334 111.755 219.72 111.558 220.068C111.361 220.412 111.072 220.688 110.69 220.894C110.308 221.097 109.841 221.199 109.287 221.199H106.314V214.108H107.403V220.183H109.287C109.717 220.183 110.071 220.069 110.348 219.842C110.625 219.614 110.764 219.321 110.764 218.964C110.764 218.589 110.625 218.283 110.348 218.046C110.071 217.809 109.717 217.69 109.287 217.69H107.255V216.675ZM113.069 219.389H114.232C114.257 219.709 114.401 219.952 114.666 220.119C114.934 220.285 115.281 220.368 115.709 220.368C116.146 220.368 116.52 220.279 116.831 220.1C117.142 219.918 117.297 219.626 117.297 219.223C117.297 218.986 117.239 218.78 117.122 218.604C117.005 218.426 116.84 218.287 116.628 218.189C116.416 218.09 116.165 218.041 115.875 218.041H114.657V217.062H115.875C116.309 217.062 116.629 216.964 116.836 216.767C117.045 216.57 117.15 216.324 117.15 216.028C117.15 215.711 117.037 215.457 116.813 215.267C116.588 215.073 116.269 214.976 115.857 214.976C115.441 214.976 115.095 215.07 114.818 215.257C114.541 215.442 114.395 215.681 114.38 215.973H113.235C113.247 215.591 113.364 215.254 113.586 214.962C113.807 214.666 114.109 214.436 114.491 214.269C114.872 214.1 115.309 214.016 115.802 214.016C116.3 214.016 116.733 214.103 117.099 214.279C117.468 214.451 117.753 214.686 117.953 214.985C118.156 215.28 118.258 215.616 118.258 215.991C118.258 216.391 118.145 216.715 117.921 216.961C117.696 217.207 117.414 217.383 117.076 217.487V217.561C117.343 217.579 117.576 217.666 117.773 217.82C117.973 217.97 118.128 218.169 118.239 218.415C118.35 218.658 118.405 218.927 118.405 219.223C118.405 219.654 118.29 220.029 118.059 220.349C117.828 220.666 117.511 220.913 117.108 221.088C116.705 221.26 116.245 221.347 115.728 221.347C115.226 221.347 114.777 221.265 114.38 221.102C113.983 220.936 113.667 220.706 113.433 220.414C113.203 220.119 113.081 219.777 113.069 219.389ZM122.816 221.347C122.176 221.347 121.614 221.194 121.131 220.889C120.651 220.585 120.276 220.159 120.005 219.611C119.737 219.063 119.603 218.423 119.603 217.69C119.603 216.952 119.737 216.307 120.005 215.756C120.276 215.205 120.651 214.777 121.131 214.473C121.614 214.168 122.176 214.016 122.816 214.016C123.456 214.016 124.017 214.168 124.497 214.473C124.98 214.777 125.355 215.205 125.623 215.756C125.894 216.307 126.029 216.952 126.029 217.69C126.029 218.423 125.894 219.063 125.623 219.611C125.355 220.159 124.98 220.585 124.497 220.889C124.017 221.194 123.456 221.347 122.816 221.347ZM122.816 220.368C123.303 220.368 123.703 220.243 124.017 219.994C124.331 219.745 124.563 219.417 124.714 219.011C124.864 218.604 124.94 218.164 124.94 217.69C124.94 217.216 124.864 216.775 124.714 216.365C124.563 215.956 124.331 215.625 124.017 215.373C123.703 215.12 123.303 214.994 122.816 214.994C122.33 214.994 121.93 215.12 121.616 215.373C121.302 215.625 121.07 215.956 120.919 216.365C120.768 216.775 120.693 217.216 120.693 217.69C120.693 218.164 120.768 218.604 120.919 219.011C121.07 219.417 121.302 219.745 121.616 219.994C121.93 220.243 122.33 220.368 122.816 220.368ZM127.692 221.199V214.108H130.592C131.355 214.108 131.961 214.28 132.411 214.625C132.86 214.97 133.085 215.425 133.085 215.991C133.085 216.422 132.957 216.756 132.701 216.993C132.446 217.227 132.118 217.386 131.718 217.469C131.98 217.506 132.234 217.598 132.48 217.746C132.729 217.893 132.935 218.097 133.098 218.355C133.261 218.61 133.343 218.924 133.343 219.297C133.343 219.66 133.251 219.985 133.066 220.271C132.881 220.557 132.617 220.783 132.272 220.95C131.927 221.116 131.515 221.199 131.035 221.199H127.692ZM128.727 220.202H131.035C131.41 220.202 131.704 220.112 131.917 219.934C132.129 219.755 132.235 219.512 132.235 219.204C132.235 218.838 132.129 218.55 131.917 218.341C131.704 218.129 131.41 218.023 131.035 218.023H128.727V220.202ZM128.727 217.081H130.592C130.884 217.081 131.135 217.041 131.344 216.961C131.553 216.878 131.713 216.761 131.824 216.61C131.938 216.456 131.995 216.275 131.995 216.065C131.995 215.767 131.87 215.533 131.621 215.364C131.372 215.191 131.029 215.105 130.592 215.105H128.727V217.081ZM137.079 221.365C136.63 221.365 136.222 221.28 135.856 221.111C135.489 220.939 135.198 220.691 134.983 220.368C134.768 220.042 134.66 219.648 134.66 219.186C134.66 218.78 134.74 218.45 134.9 218.198C135.06 217.943 135.274 217.743 135.542 217.598C135.809 217.453 136.105 217.346 136.428 217.275C136.754 217.201 137.082 217.142 137.411 217.099C137.842 217.044 138.191 217.002 138.459 216.975C138.73 216.944 138.927 216.893 139.05 216.822C139.176 216.752 139.239 216.628 139.239 216.453V216.416C139.239 215.961 139.115 215.607 138.866 215.354C138.619 215.102 138.245 214.976 137.744 214.976C137.224 214.976 136.816 215.09 136.52 215.317C136.225 215.545 136.017 215.788 135.897 216.047L134.863 215.677C135.048 215.247 135.294 214.911 135.602 214.671C135.912 214.428 136.251 214.259 136.617 214.163C136.987 214.065 137.35 214.016 137.707 214.016C137.935 214.016 138.196 214.043 138.492 214.099C138.79 214.151 139.078 214.26 139.355 214.426C139.635 214.593 139.867 214.843 140.052 215.179C140.237 215.514 140.329 215.964 140.329 216.527V221.199H139.239V220.239H139.184C139.11 220.392 138.987 220.557 138.815 220.733C138.642 220.908 138.413 221.057 138.127 221.18C137.841 221.303 137.491 221.365 137.079 221.365ZM137.245 220.386C137.676 220.386 138.039 220.302 138.335 220.132C138.633 219.963 138.858 219.745 139.009 219.477C139.162 219.209 139.239 218.927 139.239 218.632V217.635C139.193 217.69 139.092 217.741 138.935 217.787C138.781 217.83 138.602 217.869 138.399 217.903C138.199 217.933 138.004 217.961 137.813 217.986C137.625 218.007 137.473 218.026 137.356 218.041C137.073 218.078 136.808 218.138 136.562 218.221C136.319 218.301 136.122 218.423 135.971 218.586C135.823 218.746 135.749 218.964 135.749 219.241C135.749 219.62 135.889 219.906 136.169 220.1C136.453 220.291 136.811 220.386 137.245 220.386ZM147.063 217.155V218.17H143.148V217.155H147.063ZM143.407 214.108V221.199H142.317V214.108H143.407ZM147.894 214.108V221.199H146.805V214.108H147.894ZM150.973 219.592L154.39 214.108H155.645V221.199H154.556V215.714L151.158 221.199H149.884V214.108H150.973V219.592ZM160.614 221.347C159.93 221.347 159.341 221.196 158.846 220.894C158.353 220.589 157.973 220.165 157.705 219.62C157.441 219.072 157.308 218.435 157.308 217.709C157.308 216.982 157.441 216.342 157.705 215.788C157.973 215.231 158.345 214.797 158.823 214.486C159.303 214.173 159.863 214.016 160.503 214.016C160.872 214.016 161.237 214.077 161.597 214.2C161.957 214.323 162.285 214.523 162.58 214.8C162.876 215.074 163.111 215.437 163.287 215.89C163.462 216.342 163.55 216.899 163.55 217.561V218.023H158.084V217.081H162.442C162.442 216.681 162.362 216.324 162.202 216.01C162.045 215.696 161.82 215.448 161.528 215.267C161.238 215.085 160.897 214.994 160.503 214.994C160.069 214.994 159.694 215.102 159.377 215.317C159.063 215.53 158.821 215.807 158.652 216.148C158.482 216.49 158.398 216.856 158.398 217.247V217.875C158.398 218.41 158.49 218.864 158.675 219.237C158.863 219.606 159.123 219.888 159.455 220.082C159.787 220.272 160.174 220.368 160.614 220.368C160.9 220.368 161.158 220.328 161.389 220.248C161.623 220.165 161.825 220.042 161.994 219.878C162.163 219.712 162.294 219.506 162.386 219.26L163.439 219.555C163.328 219.912 163.142 220.226 162.88 220.497C162.619 220.765 162.296 220.974 161.911 221.125C161.526 221.273 161.094 221.347 160.614 221.347ZM170.95 221.365C170.501 221.365 170.093 221.28 169.727 221.111C169.36 220.939 169.07 220.691 168.854 220.368C168.639 220.042 168.531 219.648 168.531 219.186C168.531 218.78 168.611 218.45 168.771 218.198C168.931 217.943 169.145 217.743 169.413 217.598C169.68 217.453 169.976 217.346 170.299 217.275C170.625 217.201 170.953 217.142 171.282 217.099C171.713 217.044 172.063 217.002 172.33 216.975C172.601 216.944 172.798 216.893 172.921 216.822C173.047 216.752 173.111 216.628 173.111 216.453V216.416C173.111 215.961 172.986 215.607 172.737 215.354C172.49 215.102 172.116 214.976 171.615 214.976C171.095 214.976 170.687 215.09 170.391 215.317C170.096 215.545 169.888 215.788 169.768 216.047L168.734 215.677C168.919 215.247 169.165 214.911 169.473 214.671C169.784 214.428 170.122 214.259 170.488 214.163C170.858 214.065 171.221 214.016 171.578 214.016C171.806 214.016 172.067 214.043 172.363 214.099C172.661 214.151 172.949 214.26 173.226 214.426C173.506 214.593 173.738 214.843 173.923 215.179C174.108 215.514 174.2 215.964 174.2 216.527V221.199H173.111V220.239H173.055C172.981 220.392 172.858 220.557 172.686 220.733C172.513 220.908 172.284 221.057 171.998 221.18C171.712 221.303 171.362 221.365 170.95 221.365ZM171.116 220.386C171.547 220.386 171.91 220.302 172.206 220.132C172.504 219.963 172.729 219.745 172.88 219.477C173.034 219.209 173.111 218.927 173.111 218.632V217.635C173.064 217.69 172.963 217.741 172.806 217.787C172.652 217.83 172.473 217.869 172.27 217.903C172.07 217.933 171.875 217.961 171.684 217.986C171.496 218.007 171.344 218.026 171.227 218.041C170.944 218.078 170.679 218.138 170.433 218.221C170.19 218.301 169.993 218.423 169.842 218.586C169.694 218.746 169.62 218.964 169.62 219.241C169.62 219.62 169.761 219.906 170.041 220.1C170.324 220.291 170.682 220.386 171.116 220.386ZM176.189 221.199V214.108H181.765V221.199H180.676V215.124H177.278V221.199H176.189ZM182.79 215.124V214.108H188.551V215.124H186.225V221.199H185.135V215.124H182.79ZM192.746 221.347C192.062 221.347 191.473 221.196 190.977 220.894C190.485 220.589 190.105 220.165 189.837 219.62C189.573 219.072 189.44 218.435 189.44 217.709C189.44 216.982 189.573 216.342 189.837 215.788C190.105 215.231 190.477 214.797 190.954 214.486C191.434 214.173 191.995 214.016 192.635 214.016C193.004 214.016 193.369 214.077 193.729 214.2C194.089 214.323 194.417 214.523 194.712 214.8C195.008 215.074 195.243 215.437 195.419 215.89C195.594 216.342 195.682 216.899 195.682 217.561V218.023H190.216V217.081H194.574C194.574 216.681 194.494 216.324 194.334 216.01C194.177 215.696 193.952 215.448 193.66 215.267C193.37 215.085 193.029 214.994 192.635 214.994C192.201 214.994 191.825 215.102 191.508 215.317C191.194 215.53 190.953 215.807 190.784 216.148C190.614 216.49 190.53 216.856 190.53 217.247V217.875C190.53 218.41 190.622 218.864 190.807 219.237C190.994 219.606 191.254 219.888 191.587 220.082C191.919 220.272 192.305 220.368 192.746 220.368C193.032 220.368 193.29 220.328 193.521 220.248C193.755 220.165 193.957 220.042 194.126 219.878C194.295 219.712 194.426 219.506 194.518 219.26L195.571 219.555C195.46 219.912 195.274 220.226 195.012 220.497C194.751 220.765 194.427 220.974 194.043 221.125C193.658 221.273 193.226 221.347 192.746 221.347ZM202.805 214.108V221.199H201.715V214.108H202.805ZM202.38 217.487V218.503C202.134 218.595 201.889 218.677 201.646 218.747C201.403 218.815 201.148 218.869 200.88 218.909C200.612 218.946 200.318 218.964 199.998 218.964C199.195 218.964 198.55 218.747 198.064 218.313C197.581 217.88 197.339 217.229 197.339 216.361V214.089H198.428V216.361C198.428 216.724 198.498 217.022 198.636 217.256C198.775 217.49 198.962 217.664 199.199 217.778C199.436 217.892 199.703 217.949 199.998 217.949C200.46 217.949 200.877 217.907 201.249 217.824C201.625 217.738 202.002 217.626 202.38 217.487ZM207.777 221.347C207.094 221.347 206.504 221.196 206.009 220.894C205.516 220.589 205.136 220.165 204.868 219.62C204.604 219.072 204.471 218.435 204.471 217.709C204.471 216.982 204.604 216.342 204.868 215.788C205.136 215.231 205.509 214.797 205.986 214.486C206.466 214.173 207.026 214.016 207.666 214.016C208.035 214.016 208.4 214.077 208.76 214.2C209.12 214.323 209.448 214.523 209.743 214.8C210.039 215.074 210.274 215.437 210.45 215.89C210.625 216.342 210.713 216.899 210.713 217.561V218.023H205.247V217.081H209.605C209.605 216.681 209.525 216.324 209.365 216.01C209.208 215.696 208.983 215.448 208.691 215.267C208.402 215.085 208.06 214.994 207.666 214.994C207.232 214.994 206.857 215.102 206.54 215.317C206.226 215.53 205.984 215.807 205.815 216.148C205.646 216.49 205.561 216.856 205.561 217.247V217.875C205.561 218.41 205.653 218.864 205.838 219.237C206.026 219.606 206.286 219.888 206.618 220.082C206.95 220.272 207.337 220.368 207.777 220.368C208.063 220.368 208.322 220.328 208.552 220.248C208.786 220.165 208.988 220.042 209.157 219.878C209.326 219.712 209.457 219.506 209.55 219.26L210.602 219.555C210.491 219.912 210.305 220.226 210.044 220.497C209.782 220.765 209.459 220.974 209.074 221.125C208.689 221.273 208.257 221.347 207.777 221.347ZM212.37 221.199V214.108H213.46V217.192H214.18L216.728 214.108H218.132L215.269 217.524L218.169 221.199H216.765L214.438 218.207H213.46V221.199H212.37Z" fill="black"/>
<circle cx="229.217" cy="218.199" r="6" fill="white" stroke="#43C552" stroke-width="2"/>
<path d="M0.306818 352.312V349.261H0.869318C1.0625 349.085 1.24432 348.837 1.41477 348.516C1.58807 348.192 1.73438 347.76 1.85369 347.22C1.97585 346.677 2.05682 345.989 2.09659 345.153L2.28409 341.472H7.46591V349.261H8.47159V352.295H7.46591V350.199H1.3125V352.312H0.306818ZM2.13068 349.261H6.46023V342.409H3.23864L3.10227 345.153C3.06818 345.79 3.00852 346.366 2.9233 346.883C2.83807 347.398 2.72869 347.854 2.59517 348.251C2.46165 348.646 2.30682 348.983 2.13068 349.261ZM12.6765 350.335C12.0458 350.335 11.5018 350.196 11.0444 349.918C10.5898 349.636 10.239 349.244 9.99183 348.741C9.74751 348.236 9.62536 347.648 9.62536 346.977C9.62536 346.307 9.74751 345.716 9.99183 345.204C10.239 344.69 10.5827 344.29 11.0231 344.003C11.4663 343.713 11.9833 343.568 12.5742 343.568C12.9151 343.568 13.2518 343.625 13.5842 343.739C13.9165 343.852 14.2191 344.037 14.4918 344.293C14.7646 344.545 14.9819 344.881 15.1438 345.298C15.3058 345.716 15.3867 346.23 15.3867 346.841V347.267H10.3413V346.398H14.364C14.364 346.028 14.2901 345.699 14.1424 345.409C13.9975 345.119 13.7901 344.891 13.5202 344.723C13.2532 344.555 12.9379 344.472 12.5742 344.472C12.1737 344.472 11.8271 344.571 11.5344 344.77C11.2447 344.966 11.0217 345.222 10.8654 345.537C10.7092 345.852 10.631 346.19 10.631 346.551V347.131C10.631 347.625 10.7163 348.044 10.8867 348.388C11.06 348.729 11.3001 348.989 11.6069 349.168C11.9137 349.344 12.2702 349.432 12.6765 349.432C12.9407 349.432 13.1793 349.395 13.3924 349.321C13.6083 349.244 13.7944 349.131 13.9506 348.98C14.1069 348.827 14.2276 348.636 14.3129 348.409L15.2844 348.682C15.1822 349.011 15.0103 349.301 14.7688 349.551C14.5273 349.798 14.229 349.991 13.8739 350.131C13.5188 350.267 13.1197 350.335 12.6765 350.335ZM17.9222 348.716L21.0756 343.653H22.2347V350.199H21.229V345.136L18.0927 350.199H16.9165V343.653H17.9222V348.716ZM20.4109 341.472H21.3484C21.3484 341.932 21.1893 342.308 20.8711 342.601C20.5529 342.893 20.1211 343.04 19.5756 343.04C19.0387 343.04 18.6112 342.893 18.293 342.601C17.9776 342.308 17.82 341.932 17.82 341.472H18.7575C18.7575 341.693 18.8185 341.888 18.9407 342.055C19.0657 342.223 19.2773 342.307 19.5756 342.307C19.8739 342.307 20.087 342.223 20.2148 342.055C20.3455 341.888 20.4109 341.693 20.4109 341.472ZM26.7358 350.335C26.1222 350.335 25.5938 350.19 25.1506 349.9C24.7074 349.611 24.3665 349.212 24.1278 348.703C23.8892 348.195 23.7699 347.614 23.7699 346.96C23.7699 346.295 23.892 345.709 24.1364 345.2C24.3835 344.689 24.7273 344.29 25.1676 344.003C25.6108 343.713 26.1278 343.568 26.7188 343.568C27.179 343.568 27.5938 343.653 27.9631 343.824C28.3324 343.994 28.6349 344.233 28.8707 344.54C29.1065 344.847 29.2528 345.204 29.3097 345.614H28.304C28.2273 345.315 28.0568 345.051 27.7926 344.821C27.5313 344.588 27.179 344.472 26.7358 344.472C26.3438 344.472 26 344.574 25.7045 344.778C25.4119 344.98 25.1832 345.266 25.0185 345.635C24.8565 346.001 24.7756 346.432 24.7756 346.926C24.7756 347.432 24.8551 347.872 25.0142 348.247C25.1761 348.622 25.4034 348.913 25.696 349.121C25.9915 349.328 26.3381 349.432 26.7358 349.432C26.9972 349.432 27.2344 349.386 27.4474 349.295C27.6605 349.204 27.8409 349.074 27.9886 348.903C28.1364 348.733 28.2415 348.528 28.304 348.29H29.3097C29.2528 348.676 29.1122 349.024 28.8878 349.334C28.6662 349.641 28.3722 349.885 28.0057 350.067C27.642 350.246 27.2188 350.335 26.7358 350.335ZM30.2642 344.591V343.653H35.5824V344.591H33.4347V350.199H32.429V344.591H30.2642ZM37.0494 350.199V343.653H39.7255C40.43 343.653 40.9897 343.812 41.4045 344.131C41.8192 344.449 42.0266 344.869 42.0266 345.392C42.0266 345.79 41.9087 346.098 41.6729 346.317C41.4371 346.533 41.1346 346.679 40.7653 346.756C41.0067 346.79 41.2411 346.875 41.4684 347.011C41.6985 347.148 41.8888 347.335 42.0394 347.574C42.19 347.81 42.2653 348.099 42.2653 348.443C42.2653 348.778 42.18 349.078 42.0096 349.342C41.8391 349.606 41.5948 349.815 41.2766 349.969C40.9585 350.122 40.5778 350.199 40.1346 350.199H37.0494ZM38.0039 349.278H40.1346C40.4812 349.278 40.7525 349.196 40.9485 349.031C41.1445 348.866 41.2425 348.642 41.2425 348.358C41.2425 348.02 41.1445 347.754 40.9485 347.561C40.7525 347.365 40.4812 347.267 40.1346 347.267H38.0039V349.278ZM38.0039 346.398H39.7255C39.9954 346.398 40.2269 346.361 40.4201 346.287C40.6133 346.21 40.761 346.102 40.8633 345.963C40.9684 345.821 41.021 345.653 41.021 345.46C41.021 345.185 40.9059 344.969 40.6758 344.812C40.4457 344.653 40.1289 344.574 39.7255 344.574H38.0039V346.398ZM44.7933 348.716L47.9467 343.653H49.1058V350.199H48.1001V345.136L44.9638 350.199H43.7876V343.653H44.7933V348.716ZM54.8853 350.199V344.574H53.1467C52.7546 344.574 52.4464 344.665 52.2219 344.847C51.9975 345.028 51.8853 345.278 51.8853 345.597C51.8853 345.909 51.9862 346.155 52.1879 346.334C52.3924 346.513 52.6722 346.602 53.0273 346.602H55.141V347.54H53.0273C52.5842 347.54 52.2021 347.462 51.881 347.305C51.56 347.149 51.3129 346.926 51.1396 346.636C50.9663 346.344 50.8796 345.997 50.8796 345.597C50.8796 345.193 50.9705 344.847 51.1523 344.557C51.3342 344.267 51.5941 344.044 51.9322 343.888C52.2731 343.731 52.6779 343.653 53.1467 343.653H55.8398V350.199H54.8853ZM50.5217 350.199L52.3796 346.943H53.4705L51.6126 350.199H50.5217ZM61.0611 350.199V343.653H66.2088V350.199H65.2031V344.591H62.0668V350.199H61.0611ZM68.0455 352.653V343.653H69.017V344.693H69.1364C69.2102 344.579 69.3125 344.435 69.4432 344.258C69.5767 344.079 69.767 343.92 70.0142 343.781C70.2642 343.639 70.6023 343.568 71.0284 343.568C71.5795 343.568 72.0653 343.706 72.4858 343.981C72.9063 344.257 73.2344 344.648 73.4702 345.153C73.706 345.659 73.8239 346.256 73.8239 346.943C73.8239 347.636 73.706 348.237 73.4702 348.746C73.2344 349.251 72.9077 349.643 72.4901 349.922C72.0724 350.197 71.5909 350.335 71.0455 350.335C70.625 350.335 70.2884 350.266 70.0355 350.126C69.7827 349.984 69.5881 349.824 69.4517 349.645C69.3153 349.463 69.2102 349.312 69.1364 349.193H69.0511V352.653H68.0455ZM69.0341 346.926C69.0341 347.42 69.1065 347.856 69.2514 348.234C69.3963 348.609 69.608 348.903 69.8864 349.116C70.1648 349.327 70.5057 349.432 70.9091 349.432C71.3295 349.432 71.6804 349.321 71.9616 349.099C72.2457 348.875 72.4588 348.574 72.6009 348.196C72.7457 347.815 72.8182 347.392 72.8182 346.926C72.8182 346.466 72.7472 346.051 72.6051 345.682C72.4659 345.31 72.2543 345.016 71.9702 344.8C71.6889 344.581 71.3352 344.472 70.9091 344.472C70.5 344.472 70.1563 344.575 69.8778 344.783C69.5994 344.987 69.3892 345.274 69.2472 345.643C69.1051 346.01 69.0341 346.437 69.0341 346.926ZM76.3636 348.716L79.517 343.653H80.6761V350.199H79.6705V345.136L76.5341 350.199H75.358V343.653H76.3636V348.716ZM88.0579 344.506C87.8306 344.508 87.6019 344.567 87.3718 344.68C87.1445 344.794 86.9542 344.945 86.8008 345.132C86.6502 345.317 86.5749 345.523 86.5749 345.75H85.5863C85.5863 345.466 85.6545 345.193 85.7908 344.932C85.9272 344.67 86.1104 344.437 86.3406 344.233C86.5735 344.028 86.8377 343.866 87.1332 343.747C87.4315 343.628 87.7397 343.568 88.0579 343.568C88.6545 343.568 89.1602 343.719 89.5749 344.02C89.9925 344.321 90.3093 344.719 90.5252 345.213C90.744 345.707 90.8533 346.244 90.8533 346.824V347.062C90.8533 347.639 90.744 348.176 90.5252 348.673C90.3093 349.168 89.9925 349.565 89.5749 349.866C89.1602 350.168 88.6545 350.318 88.0579 350.318C87.5806 350.318 87.1559 350.213 86.7837 350.003C86.4116 349.79 86.119 349.506 85.9059 349.15C85.6928 348.795 85.5863 348.4 85.5863 347.966H86.5749C86.5749 348.213 86.6445 348.445 86.7837 348.66C86.9258 348.874 87.109 349.047 87.3335 349.18C87.5607 349.311 87.8022 349.378 88.0579 349.381C88.4386 349.378 88.7624 349.258 89.0295 349.023C89.2965 348.787 89.4996 348.491 89.6388 348.136C89.7781 347.781 89.8477 347.423 89.8477 347.062V346.824C89.8477 346.454 89.7781 346.094 89.6388 345.741C89.5025 345.386 89.3008 345.092 89.0337 344.859C88.7695 344.626 88.4442 344.508 88.0579 344.506ZM90.2567 346.432V347.369H87.3931V346.432H90.2567ZM92.3853 350.199V343.653H93.391V346.5H94.0558L96.408 343.653H97.7035L95.0614 346.807L97.7376 350.199H96.4421L94.2944 347.437H93.391V350.199H92.3853ZM101.22 350.335C100.607 350.335 100.078 350.19 99.6349 349.9C99.1918 349.611 98.8509 349.212 98.6122 348.703C98.3736 348.195 98.2543 347.614 98.2543 346.96C98.2543 346.295 98.3764 345.709 98.6207 345.2C98.8679 344.689 99.2116 344.29 99.652 344.003C100.095 343.713 100.612 343.568 101.203 343.568C101.663 343.568 102.078 343.653 102.447 343.824C102.817 343.994 103.119 344.233 103.355 344.54C103.591 344.847 103.737 345.204 103.794 345.614H102.788C102.712 345.315 102.541 345.051 102.277 344.821C102.016 344.588 101.663 344.472 101.22 344.472C100.828 344.472 100.484 344.574 100.189 344.778C99.8963 344.98 99.6676 345.266 99.5028 345.635C99.3409 346.001 99.2599 346.432 99.2599 346.926C99.2599 347.432 99.3395 347.872 99.4986 348.247C99.6605 348.622 99.8878 348.913 100.18 349.121C100.476 349.328 100.822 349.432 101.22 349.432C101.482 349.432 101.719 349.386 101.932 349.295C102.145 349.204 102.325 349.074 102.473 348.903C102.621 348.733 102.726 348.528 102.788 348.29H103.794C103.737 348.676 103.597 349.024 103.372 349.334C103.151 349.641 102.857 349.885 102.49 350.067C102.126 350.246 101.703 350.335 101.22 350.335ZM104.749 344.591V343.653H110.067V344.591H107.919V350.199H106.913V344.591H104.749ZM111.534 352.653V343.653H112.505V344.693H112.625C112.699 344.579 112.801 344.435 112.931 344.258C113.065 344.079 113.255 343.92 113.502 343.781C113.752 343.639 114.091 343.568 114.517 343.568C115.068 343.568 115.554 343.706 115.974 343.981C116.395 344.257 116.723 344.648 116.958 345.153C117.194 345.659 117.312 346.256 117.312 346.943C117.312 347.636 117.194 348.237 116.958 348.746C116.723 349.251 116.396 349.643 115.978 349.922C115.561 350.197 115.079 350.335 114.534 350.335C114.113 350.335 113.777 350.266 113.524 350.126C113.271 349.984 113.076 349.824 112.94 349.645C112.804 349.463 112.699 349.312 112.625 349.193H112.539V352.653H111.534ZM112.522 346.926C112.522 347.42 112.595 347.856 112.74 348.234C112.885 348.609 113.096 348.903 113.375 349.116C113.653 349.327 113.994 349.432 114.397 349.432C114.818 349.432 115.169 349.321 115.45 349.099C115.734 348.875 115.947 348.574 116.089 348.196C116.234 347.815 116.306 347.392 116.306 346.926C116.306 346.466 116.235 346.051 116.093 345.682C115.954 345.31 115.743 345.016 115.458 344.8C115.177 344.581 114.824 344.472 114.397 344.472C113.988 344.472 113.645 344.575 113.366 344.783C113.088 344.987 112.877 345.274 112.735 345.643C112.593 346.01 112.522 346.437 112.522 346.926ZM121.591 350.335C120.96 350.335 120.416 350.196 119.958 349.918C119.504 349.636 119.153 349.244 118.906 348.741C118.662 348.236 118.539 347.648 118.539 346.977C118.539 346.307 118.662 345.716 118.906 345.204C119.153 344.69 119.497 344.29 119.937 344.003C120.38 343.713 120.897 343.568 121.488 343.568C121.829 343.568 122.166 343.625 122.498 343.739C122.831 343.852 123.133 344.037 123.406 344.293C123.679 344.545 123.896 344.881 124.058 345.298C124.22 345.716 124.301 346.23 124.301 346.841V347.267H119.255V346.398H123.278C123.278 346.028 123.204 345.699 123.056 345.409C122.912 345.119 122.704 344.891 122.434 344.723C122.167 344.555 121.852 344.472 121.488 344.472C121.088 344.472 120.741 344.571 120.449 344.77C120.159 344.966 119.936 345.222 119.779 345.537C119.623 345.852 119.545 346.19 119.545 346.551V347.131C119.545 347.625 119.63 348.044 119.801 348.388C119.974 348.729 120.214 348.989 120.521 349.168C120.828 349.344 121.184 349.432 121.591 349.432C121.855 349.432 122.093 349.395 122.306 349.321C122.522 349.244 122.708 349.131 122.865 348.98C123.021 348.827 123.142 348.636 123.227 348.409L124.199 348.682C124.096 349.011 123.924 349.301 123.683 349.551C123.441 349.798 123.143 349.991 122.788 350.131C122.433 350.267 122.034 350.335 121.591 350.335ZM130.211 346.466V347.403H126.598V346.466H130.211ZM126.836 343.653V350.199H125.831V343.653H126.836ZM130.978 343.653V350.199H129.973V343.653H130.978ZM137.196 346.466V347.403H133.582V346.466H137.196ZM133.821 343.653V350.199H132.815V343.653H133.821ZM137.963 343.653V350.199H136.957V343.653H137.963ZM140.669 346.023H142.544C143.311 346.023 143.897 346.217 144.304 346.606C144.71 346.996 144.913 347.489 144.913 348.085C144.913 348.477 144.822 348.834 144.64 349.155C144.458 349.473 144.191 349.727 143.839 349.918C143.487 350.105 143.055 350.199 142.544 350.199H139.799V343.653H140.805V349.261H142.544C142.941 349.261 143.268 349.156 143.524 348.946C143.779 348.736 143.907 348.466 143.907 348.136C143.907 347.79 143.779 347.507 143.524 347.288C143.268 347.07 142.941 346.96 142.544 346.96H140.669V346.023ZM145.953 350.199V343.653H146.958V350.199H145.953ZM149.549 343.653L151.118 346.329L152.686 343.653H153.845L151.731 346.926L153.845 350.199H152.686L151.118 347.659L149.549 350.199H148.39L150.47 346.926L148.39 343.653H149.549ZM161.314 350.335C160.7 350.335 160.172 350.19 159.729 349.9C159.286 349.611 158.945 349.212 158.706 348.703C158.467 348.195 158.348 347.614 158.348 346.96C158.348 346.295 158.47 345.709 158.714 345.2C158.962 344.689 159.305 344.29 159.746 344.003C160.189 343.713 160.706 343.568 161.297 343.568C161.757 343.568 162.172 343.653 162.541 343.824C162.911 343.994 163.213 344.233 163.449 344.54C163.685 344.847 163.831 345.204 163.888 345.614H162.882C162.805 345.315 162.635 345.051 162.371 344.821C162.109 344.588 161.757 344.472 161.314 344.472C160.922 344.472 160.578 344.574 160.283 344.778C159.99 344.98 159.761 345.266 159.597 345.635C159.435 346.001 159.354 346.432 159.354 346.926C159.354 347.432 159.433 347.872 159.592 348.247C159.754 348.622 159.982 348.913 160.274 349.121C160.57 349.328 160.916 349.432 161.314 349.432C161.575 349.432 161.812 349.386 162.026 349.295C162.239 349.204 162.419 349.074 162.567 348.903C162.714 348.733 162.82 348.528 162.882 348.29H163.888C163.831 348.676 163.69 349.024 163.466 349.334C163.244 349.641 162.95 349.885 162.584 350.067C162.22 350.246 161.797 350.335 161.314 350.335ZM166.364 348.716L169.517 343.653H170.676V350.199H169.67V345.136L166.534 350.199H165.358V343.653H166.364V348.716ZM171.627 344.591V343.653H176.946V344.591H174.798V350.199H173.792V344.591H171.627ZM179.06 352.653C178.89 352.653 178.738 352.639 178.604 352.611C178.471 352.585 178.379 352.56 178.327 352.534L178.583 351.648C178.827 351.71 179.043 351.733 179.231 351.716C179.418 351.699 179.585 351.615 179.729 351.464C179.877 351.317 180.012 351.077 180.134 350.744L180.322 350.233L177.901 343.653H178.992L180.799 348.869H180.867L182.674 343.653H183.765L180.987 351.153C180.862 351.491 180.707 351.771 180.522 351.993C180.337 352.217 180.123 352.383 179.879 352.491C179.637 352.599 179.364 352.653 179.06 352.653ZM186.819 350.352C186.404 350.352 186.028 350.274 185.69 350.118C185.352 349.959 185.083 349.73 184.885 349.432C184.686 349.131 184.586 348.767 184.586 348.341C184.586 347.966 184.66 347.662 184.808 347.429C184.956 347.193 185.153 347.008 185.4 346.875C185.647 346.741 185.92 346.642 186.218 346.577C186.52 346.508 186.822 346.454 187.126 346.415C187.524 346.364 187.846 346.325 188.093 346.3C188.343 346.271 188.525 346.224 188.639 346.159C188.755 346.094 188.814 345.98 188.814 345.818V345.784C188.814 345.364 188.699 345.037 188.468 344.804C188.241 344.571 187.896 344.454 187.433 344.454C186.953 344.454 186.576 344.56 186.304 344.77C186.031 344.98 185.839 345.204 185.728 345.443L184.774 345.102C184.944 344.704 185.172 344.395 185.456 344.173C185.743 343.949 186.055 343.793 186.393 343.704C186.734 343.614 187.069 343.568 187.399 343.568C187.609 343.568 187.85 343.594 188.123 343.645C188.399 343.693 188.664 343.794 188.92 343.947C189.179 344.101 189.393 344.332 189.564 344.642C189.734 344.952 189.819 345.366 189.819 345.886V350.199H188.814V349.312H188.762C188.694 349.454 188.581 349.606 188.422 349.768C188.262 349.93 188.051 350.068 187.787 350.182C187.522 350.295 187.2 350.352 186.819 350.352ZM186.973 349.449C187.37 349.449 187.706 349.371 187.978 349.214C188.254 349.058 188.461 348.856 188.6 348.609C188.743 348.362 188.814 348.102 188.814 347.829V346.909C188.771 346.96 188.677 347.007 188.532 347.05C188.39 347.089 188.225 347.125 188.038 347.156C187.853 347.185 187.673 347.21 187.497 347.233C187.324 347.253 187.183 347.27 187.075 347.284C186.814 347.318 186.569 347.374 186.342 347.45C186.118 347.524 185.936 347.636 185.797 347.787C185.66 347.935 185.592 348.136 185.592 348.392C185.592 348.741 185.721 349.006 185.98 349.185C186.241 349.361 186.572 349.449 186.973 349.449ZM196.803 343.653V349.261H197.723V352.312H196.717V350.199H191.655V343.653H192.661V349.261H195.797V343.653H196.803ZM200.278 348.716L203.431 343.653H204.59V350.199H203.585V345.136L200.448 350.199H199.272V343.653H200.278V348.716ZM210.37 350.199V344.574H208.631C208.239 344.574 207.931 344.665 207.706 344.847C207.482 345.028 207.37 345.278 207.37 345.597C207.37 345.909 207.471 346.155 207.672 346.334C207.877 346.513 208.157 346.602 208.512 346.602H210.625V347.54H208.512C208.069 347.54 207.686 347.462 207.365 347.305C207.044 347.149 206.797 346.926 206.624 346.636C206.451 346.344 206.364 345.997 206.364 345.597C206.364 345.193 206.455 344.847 206.637 344.557C206.819 344.267 207.078 344.044 207.417 343.888C207.757 343.731 208.162 343.653 208.631 343.653H211.324V350.199H210.37ZM206.006 350.199L207.864 346.943H208.955L207.097 350.199H206.006ZM213.92 343.653L215.489 346.329L217.057 343.653H218.216L216.102 346.926L218.216 350.199H217.057L215.489 347.659L213.92 350.199H212.761L214.841 346.926L212.761 343.653H213.92Z" fill="black"/>
<circle cx="230.217" cy="347.199" r="6" fill="white" stroke="#43C552" stroke-width="2"/>
<path d="M358.977 293V283.545H362.171C362.913 283.545 363.519 283.679 363.99 283.947C364.464 284.212 364.815 284.57 365.043 285.023C365.27 285.475 365.384 285.98 365.384 286.537C365.384 287.094 365.27 287.6 365.043 288.056C364.818 288.511 364.47 288.874 363.999 289.145C363.528 289.413 362.925 289.547 362.19 289.547H359.9V288.531H362.153C362.661 288.531 363.068 288.444 363.376 288.268C363.684 288.093 363.907 287.856 364.045 287.557C364.187 287.256 364.258 286.915 364.258 286.537C364.258 286.158 364.187 285.82 364.045 285.521C363.907 285.223 363.682 284.989 363.371 284.82C363.061 284.647 362.648 284.561 362.134 284.561H360.121V293H358.977ZM369.167 293.166C368.718 293.166 368.31 293.082 367.944 292.912C367.578 292.74 367.287 292.492 367.072 292.169C366.856 291.843 366.748 291.449 366.748 290.987C366.748 290.581 366.828 290.252 366.988 289.999C367.148 289.744 367.362 289.544 367.63 289.399C367.898 289.254 368.193 289.147 368.517 289.076C368.843 289.002 369.171 288.944 369.5 288.901C369.931 288.845 370.28 288.804 370.548 288.776C370.819 288.745 371.016 288.694 371.139 288.624C371.265 288.553 371.328 288.43 371.328 288.254V288.217C371.328 287.762 371.203 287.408 370.954 287.156C370.708 286.903 370.334 286.777 369.832 286.777C369.312 286.777 368.904 286.891 368.609 287.119C368.313 287.346 368.106 287.589 367.986 287.848L366.952 287.479C367.136 287.048 367.382 286.712 367.69 286.472C368.001 286.229 368.34 286.06 368.706 285.964C369.075 285.866 369.438 285.817 369.795 285.817C370.023 285.817 370.285 285.844 370.58 285.9C370.879 285.952 371.166 286.061 371.443 286.228C371.723 286.394 371.956 286.645 372.14 286.98C372.325 287.316 372.417 287.765 372.417 288.328V293H371.328V292.04H371.273C371.199 292.194 371.076 292.358 370.903 292.534C370.731 292.709 370.502 292.858 370.215 292.982C369.929 293.105 369.58 293.166 369.167 293.166ZM369.334 292.188C369.764 292.188 370.128 292.103 370.423 291.934C370.722 291.764 370.946 291.546 371.097 291.278C371.251 291.01 371.328 290.729 371.328 290.433V289.436C371.282 289.491 371.18 289.542 371.023 289.588C370.869 289.632 370.691 289.67 370.488 289.704C370.288 289.735 370.092 289.762 369.901 289.787C369.714 289.808 369.561 289.827 369.444 289.842C369.161 289.879 368.897 289.939 368.65 290.022C368.407 290.102 368.21 290.224 368.059 290.387C367.912 290.547 367.838 290.766 367.838 291.043C367.838 291.421 367.978 291.707 368.258 291.901C368.541 292.092 368.9 292.188 369.334 292.188ZM377.287 293.148C376.622 293.148 376.049 292.991 375.569 292.677C375.089 292.363 374.72 291.931 374.461 291.38C374.203 290.829 374.074 290.199 374.074 289.491C374.074 288.771 374.206 288.136 374.471 287.585C374.738 287.031 375.111 286.598 375.588 286.288C376.068 285.974 376.628 285.817 377.268 285.817C377.767 285.817 378.216 285.909 378.616 286.094C379.016 286.278 379.344 286.537 379.6 286.869C379.855 287.202 380.013 287.589 380.075 288.033H378.986C378.902 287.71 378.718 287.423 378.432 287.174C378.148 286.922 377.767 286.795 377.287 286.795C376.862 286.795 376.49 286.906 376.169 287.128C375.852 287.346 375.605 287.656 375.426 288.056C375.251 288.453 375.163 288.919 375.163 289.455C375.163 290.002 375.249 290.479 375.422 290.886C375.597 291.292 375.843 291.607 376.16 291.832C376.48 292.057 376.856 292.169 377.287 292.169C377.57 292.169 377.827 292.12 378.058 292.021C378.288 291.923 378.484 291.781 378.644 291.597C378.804 291.412 378.918 291.19 378.986 290.932H380.075C380.013 291.35 379.861 291.727 379.618 292.063C379.378 292.395 379.059 292.66 378.662 292.857C378.268 293.051 377.81 293.148 377.287 293.148ZM381.668 293V285.909H387.244V293H386.155V286.925H382.757V293H381.668ZM389.234 295.659V285.909H390.287V287.036H390.416C390.496 286.912 390.607 286.755 390.748 286.565C390.893 286.371 391.099 286.198 391.367 286.048C391.638 285.894 392.004 285.817 392.466 285.817C393.063 285.817 393.589 285.966 394.044 286.265C394.5 286.563 394.855 286.986 395.111 287.534C395.366 288.082 395.494 288.728 395.494 289.473C395.494 290.224 395.366 290.875 395.111 291.426C394.855 291.974 394.501 292.398 394.049 292.7C393.597 292.998 393.075 293.148 392.484 293.148C392.029 293.148 391.664 293.072 391.39 292.922C391.116 292.768 390.905 292.594 390.758 292.4C390.61 292.203 390.496 292.04 390.416 291.911H390.324V295.659H389.234ZM390.305 289.455C390.305 289.99 390.384 290.462 390.541 290.872C390.698 291.278 390.927 291.597 391.228 291.827C391.53 292.055 391.899 292.169 392.336 292.169C392.792 292.169 393.172 292.049 393.477 291.809C393.784 291.566 394.015 291.24 394.169 290.83C394.326 290.418 394.405 289.959 394.405 289.455C394.405 288.956 394.328 288.507 394.174 288.107C394.023 287.703 393.794 287.385 393.486 287.151C393.181 286.914 392.798 286.795 392.336 286.795C391.893 286.795 391.521 286.908 391.219 287.132C390.918 287.354 390.69 287.665 390.536 288.065C390.382 288.462 390.305 288.925 390.305 289.455ZM400.037 293.148C399.397 293.148 398.835 292.995 398.352 292.691C397.872 292.386 397.496 291.96 397.225 291.412C396.957 290.864 396.824 290.224 396.824 289.491C396.824 288.753 396.957 288.108 397.225 287.557C397.496 287.006 397.872 286.578 398.352 286.274C398.835 285.969 399.397 285.817 400.037 285.817C400.677 285.817 401.237 285.969 401.717 286.274C402.2 286.578 402.576 287.006 402.843 287.557C403.114 288.108 403.25 288.753 403.25 289.491C403.25 290.224 403.114 290.864 402.843 291.412C402.576 291.96 402.2 292.386 401.717 292.691C401.237 292.995 400.677 293.148 400.037 293.148ZM400.037 292.169C400.523 292.169 400.923 292.044 401.237 291.795C401.551 291.546 401.783 291.218 401.934 290.812C402.085 290.406 402.16 289.965 402.16 289.491C402.16 289.018 402.085 288.576 401.934 288.167C401.783 287.757 401.551 287.426 401.237 287.174C400.923 286.922 400.523 286.795 400.037 286.795C399.55 286.795 399.15 286.922 398.836 287.174C398.522 287.426 398.29 287.757 398.139 288.167C397.988 288.576 397.913 289.018 397.913 289.491C397.913 289.965 397.988 290.406 398.139 290.812C398.29 291.218 398.522 291.546 398.836 291.795C399.15 292.044 399.55 292.169 400.037 292.169ZM407.793 293.148C407.129 293.148 406.556 292.991 406.076 292.677C405.596 292.363 405.227 291.931 404.968 291.38C404.71 290.829 404.58 290.199 404.58 289.491C404.58 288.771 404.713 288.136 404.977 287.585C405.245 287.031 405.618 286.598 406.095 286.288C406.575 285.974 407.135 285.817 407.775 285.817C408.274 285.817 408.723 285.909 409.123 286.094C409.523 286.278 409.851 286.537 410.106 286.869C410.362 287.202 410.52 287.589 410.582 288.033H409.492C409.409 287.71 409.225 287.423 408.938 287.174C408.655 286.922 408.274 286.795 407.793 286.795C407.369 286.795 406.996 286.906 406.676 287.128C406.359 287.346 406.112 287.656 405.933 288.056C405.758 288.453 405.67 288.919 405.67 289.455C405.67 290.002 405.756 290.479 405.928 290.886C406.104 291.292 406.35 291.607 406.667 291.832C406.987 292.057 407.363 292.169 407.793 292.169C408.077 292.169 408.334 292.12 408.564 292.021C408.795 291.923 408.991 291.781 409.151 291.597C409.311 291.412 409.425 291.19 409.492 290.932H410.582C410.52 291.35 410.368 291.727 410.125 292.063C409.885 292.395 409.566 292.66 409.169 292.857C408.775 293.051 408.317 293.148 407.793 293.148ZM411.616 286.925V285.909H417.377V286.925H415.051V293H413.961V286.925H411.616ZM418.967 295.659V285.909H420.019V287.036H420.148C420.228 286.912 420.339 286.755 420.481 286.565C420.625 286.371 420.832 286.198 421.099 286.048C421.37 285.894 421.736 285.817 422.198 285.817C422.795 285.817 423.321 285.966 423.777 286.265C424.232 286.563 424.588 286.986 424.843 287.534C425.099 288.082 425.226 288.728 425.226 289.473C425.226 290.224 425.099 290.875 424.843 291.426C424.588 291.974 424.234 292.398 423.782 292.7C423.329 292.998 422.807 293.148 422.217 293.148C421.761 293.148 421.396 293.072 421.122 292.922C420.849 292.768 420.638 292.594 420.49 292.4C420.342 292.203 420.228 292.04 420.148 291.911H420.056V295.659H418.967ZM420.038 289.455C420.038 289.99 420.116 290.462 420.273 290.872C420.43 291.278 420.659 291.597 420.961 291.827C421.262 292.055 421.632 292.169 422.069 292.169C422.524 292.169 422.904 292.049 423.209 291.809C423.517 291.566 423.748 291.24 423.902 290.83C424.058 290.418 424.137 289.959 424.137 289.455C424.137 288.956 424.06 288.507 423.906 288.107C423.755 287.703 423.526 287.385 423.218 287.151C422.914 286.914 422.53 286.795 422.069 286.795C421.626 286.795 421.253 286.908 420.952 287.132C420.65 287.354 420.422 287.665 420.268 288.065C420.114 288.462 420.038 288.925 420.038 289.455ZM428.975 293.166C428.526 293.166 428.118 293.082 427.752 292.912C427.385 292.74 427.095 292.492 426.879 292.169C426.664 291.843 426.556 291.449 426.556 290.987C426.556 290.581 426.636 290.252 426.796 289.999C426.956 289.744 427.17 289.544 427.438 289.399C427.706 289.254 428.001 289.147 428.324 289.076C428.65 289.002 428.978 288.944 429.307 288.901C429.738 288.845 430.088 288.804 430.355 288.776C430.626 288.745 430.823 288.694 430.946 288.624C431.072 288.553 431.136 288.43 431.136 288.254V288.217C431.136 287.762 431.011 287.408 430.762 287.156C430.515 286.903 430.141 286.777 429.64 286.777C429.12 286.777 428.712 286.891 428.416 287.119C428.121 287.346 427.913 287.589 427.793 287.848L426.759 287.479C426.944 287.048 427.19 286.712 427.498 286.472C427.809 286.229 428.147 286.06 428.513 285.964C428.883 285.866 429.246 285.817 429.603 285.817C429.831 285.817 430.092 285.844 430.388 285.9C430.686 285.952 430.974 286.061 431.251 286.228C431.531 286.394 431.763 286.645 431.948 286.98C432.133 287.316 432.225 287.765 432.225 288.328V293H431.136V292.04H431.08C431.006 292.194 430.883 292.358 430.711 292.534C430.538 292.709 430.309 292.858 430.023 292.982C429.737 293.105 429.387 293.166 428.975 293.166ZM429.141 292.188C429.572 292.188 429.935 292.103 430.231 291.934C430.529 291.764 430.754 291.546 430.905 291.278C431.059 291.01 431.136 290.729 431.136 290.433V289.436C431.089 289.491 430.988 289.542 430.831 289.588C430.677 289.632 430.498 289.67 430.295 289.704C430.095 289.735 429.9 289.762 429.709 289.787C429.521 289.808 429.369 289.827 429.252 289.842C428.969 289.879 428.704 289.939 428.458 290.022C428.215 290.102 428.018 290.224 427.867 290.387C427.719 290.547 427.645 290.766 427.645 291.043C427.645 291.421 427.786 291.707 428.066 291.901C428.349 292.092 428.707 292.188 429.141 292.188ZM438.959 288.956V289.972H435.045V288.956H438.959ZM435.303 285.909V293H434.214V285.909H435.303ZM439.79 285.909V293H438.701V285.909H439.79ZM444.753 293.148C444.07 293.148 443.48 292.997 442.985 292.695C442.492 292.391 442.112 291.966 441.845 291.421C441.58 290.873 441.448 290.236 441.448 289.51C441.448 288.784 441.58 288.143 441.845 287.589C442.112 287.032 442.485 286.598 442.962 286.288C443.442 285.974 444.002 285.817 444.642 285.817C445.012 285.817 445.376 285.878 445.736 286.001C446.096 286.125 446.424 286.325 446.72 286.602C447.015 286.875 447.251 287.239 447.426 287.691C447.601 288.143 447.689 288.701 447.689 289.362V289.824H442.223V288.882H446.581C446.581 288.482 446.501 288.125 446.341 287.811C446.184 287.497 445.959 287.249 445.667 287.068C445.378 286.886 445.036 286.795 444.642 286.795C444.208 286.795 443.833 286.903 443.516 287.119C443.202 287.331 442.96 287.608 442.791 287.95C442.622 288.291 442.537 288.657 442.537 289.048V289.676C442.537 290.212 442.629 290.666 442.814 291.038C443.002 291.407 443.262 291.689 443.594 291.883C443.927 292.074 444.313 292.169 444.753 292.169C445.039 292.169 445.298 292.129 445.529 292.049C445.762 291.966 445.964 291.843 446.133 291.68C446.303 291.513 446.433 291.307 446.526 291.061L447.578 291.357C447.467 291.714 447.281 292.027 447.02 292.298C446.758 292.566 446.435 292.775 446.05 292.926C445.666 293.074 445.233 293.148 444.753 293.148ZM454.092 288.956V289.972H450.177V288.956H454.092ZM450.436 285.909V293H449.346V285.909H450.436ZM454.923 285.909V293H453.834V285.909H454.923ZM461.659 288.956V289.972H457.744V288.956H461.659ZM458.002 285.909V293H456.913V285.909H458.002ZM462.49 285.909V293H461.4V285.909H462.49ZM465.421 288.476H467.452C468.283 288.476 468.919 288.687 469.359 289.108C469.799 289.53 470.019 290.064 470.019 290.71C470.019 291.135 469.921 291.521 469.724 291.869C469.527 292.214 469.237 292.489 468.856 292.695C468.474 292.898 468.006 293 467.452 293H464.479V285.909H465.569V291.984H467.452C467.883 291.984 468.237 291.871 468.514 291.643C468.791 291.415 468.929 291.123 468.929 290.766C468.929 290.39 468.791 290.084 468.514 289.847C468.237 289.61 467.883 289.491 467.452 289.491H465.421V288.476ZM471.145 293V285.909H472.235V293H471.145ZM477.202 293.148C476.519 293.148 475.93 292.997 475.434 292.695C474.942 292.391 474.562 291.966 474.294 291.421C474.029 290.873 473.897 290.236 473.897 289.51C473.897 288.784 474.029 288.143 474.294 287.589C474.562 287.032 474.934 286.598 475.411 286.288C475.891 285.974 476.451 285.817 477.091 285.817C477.461 285.817 477.825 285.878 478.186 286.001C478.546 286.125 478.873 286.325 479.169 286.602C479.464 286.875 479.7 287.239 479.875 287.691C480.051 288.143 480.138 288.701 480.138 289.362V289.824H474.672V288.882H479.03C479.03 288.482 478.95 288.125 478.79 287.811C478.633 287.497 478.409 287.249 478.116 287.068C477.827 286.886 477.485 286.795 477.091 286.795C476.657 286.795 476.282 286.903 475.965 287.119C475.651 287.331 475.409 287.608 475.24 287.95C475.071 288.291 474.986 288.657 474.986 289.048V289.676C474.986 290.212 475.079 290.666 475.263 291.038C475.451 291.407 475.711 291.689 476.043 291.883C476.376 292.074 476.762 292.169 477.202 292.169C477.488 292.169 477.747 292.129 477.978 292.049C478.212 291.966 478.413 291.843 478.583 291.68C478.752 291.513 478.883 291.307 478.975 291.061L480.028 291.357C479.917 291.714 479.731 292.027 479.469 292.298C479.207 292.566 478.884 292.775 478.499 292.926C478.115 293.074 477.682 293.148 477.202 293.148ZM485.046 286.925V285.909H490.807V286.925H488.48V293H487.391V286.925H485.046ZM492.396 295.659V285.909H493.449V287.036H493.578C493.658 286.912 493.769 286.755 493.91 286.565C494.055 286.371 494.261 286.198 494.529 286.048C494.8 285.894 495.166 285.817 495.628 285.817C496.225 285.817 496.751 285.966 497.207 286.265C497.662 286.563 498.018 286.986 498.273 287.534C498.528 288.082 498.656 288.728 498.656 289.473C498.656 290.224 498.528 290.875 498.273 291.426C498.018 291.974 497.664 292.398 497.211 292.7C496.759 292.998 496.237 293.148 495.646 293.148C495.191 293.148 494.826 293.072 494.552 292.922C494.278 292.768 494.067 292.594 493.92 292.4C493.772 292.203 493.658 292.04 493.578 291.911H493.486V295.659H492.396ZM493.467 289.455C493.467 289.99 493.546 290.462 493.703 290.872C493.86 291.278 494.089 291.597 494.391 291.827C494.692 292.055 495.061 292.169 495.498 292.169C495.954 292.169 496.334 292.049 496.639 291.809C496.947 291.566 497.177 291.24 497.331 290.83C497.488 290.418 497.567 289.959 497.567 289.455C497.567 288.956 497.49 288.507 497.336 288.107C497.185 287.703 496.956 287.385 496.648 287.151C496.343 286.914 495.96 286.795 495.498 286.795C495.055 286.795 494.683 286.908 494.381 287.132C494.08 287.354 493.852 287.665 493.698 288.065C493.544 288.462 493.467 288.925 493.467 289.455ZM502.405 293.166C501.955 293.166 501.548 293.082 501.181 292.912C500.815 292.74 500.524 292.492 500.309 292.169C500.093 291.843 499.986 291.449 499.986 290.987C499.986 290.581 500.066 290.252 500.226 289.999C500.386 289.744 500.6 289.544 500.867 289.399C501.135 289.254 501.431 289.147 501.754 289.076C502.08 289.002 502.408 288.944 502.737 288.901C503.168 288.845 503.517 288.804 503.785 288.776C504.056 288.745 504.253 288.694 504.376 288.624C504.502 288.553 504.565 288.43 504.565 288.254V288.217C504.565 287.762 504.441 287.408 504.191 287.156C503.945 286.903 503.571 286.777 503.07 286.777C502.549 286.777 502.142 286.891 501.846 287.119C501.551 287.346 501.343 287.589 501.223 287.848L500.189 287.479C500.373 287.048 500.62 286.712 500.927 286.472C501.238 286.229 501.577 286.06 501.943 285.964C502.312 285.866 502.676 285.817 503.033 285.817C503.26 285.817 503.522 285.844 503.817 285.9C504.116 285.952 504.404 286.061 504.681 286.228C504.961 286.394 505.193 286.645 505.378 286.98C505.562 287.316 505.655 287.765 505.655 288.328V293H504.565V292.04H504.51C504.436 292.194 504.313 292.358 504.141 292.534C503.968 292.709 503.739 292.858 503.453 292.982C503.166 293.105 502.817 293.166 502.405 293.166ZM502.571 292.188C503.002 292.188 503.365 292.103 503.66 291.934C503.959 291.764 504.184 291.546 504.334 291.278C504.488 291.01 504.565 290.729 504.565 290.433V289.436C504.519 289.491 504.418 289.542 504.261 289.588C504.107 289.632 503.928 289.67 503.725 289.704C503.525 289.735 503.33 289.762 503.139 289.787C502.951 289.808 502.799 289.827 502.682 289.842C502.399 289.879 502.134 289.939 501.888 290.022C501.645 290.102 501.448 290.224 501.297 290.387C501.149 290.547 501.075 290.766 501.075 291.043C501.075 291.421 501.215 291.707 501.495 291.901C501.778 292.092 502.137 292.188 502.571 292.188ZM507.643 293V285.909H510.542C511.306 285.909 511.912 286.081 512.361 286.426C512.811 286.771 513.035 287.226 513.035 287.793C513.035 288.223 512.908 288.557 512.652 288.794C512.397 289.028 512.069 289.187 511.669 289.27C511.93 289.307 512.184 289.399 512.431 289.547C512.68 289.695 512.886 289.898 513.049 290.156C513.212 290.412 513.294 290.726 513.294 291.098C513.294 291.461 513.202 291.786 513.017 292.072C512.832 292.358 512.568 292.585 512.223 292.751C511.878 292.917 511.466 293 510.986 293H507.643ZM508.677 292.003H510.986C511.361 292.003 511.655 291.914 511.867 291.735C512.08 291.557 512.186 291.313 512.186 291.006C512.186 290.639 512.08 290.352 511.867 290.142C511.655 289.93 511.361 289.824 510.986 289.824H508.677V292.003ZM508.677 288.882H510.542C510.835 288.882 511.086 288.842 511.295 288.762C511.504 288.679 511.664 288.562 511.775 288.411C511.889 288.257 511.946 288.076 511.946 287.866C511.946 287.568 511.821 287.334 511.572 287.165C511.323 286.992 510.979 286.906 510.542 286.906H508.677V288.882ZM518.821 291.523L521.295 285.909H522.329L519.264 293H518.378L515.368 285.909H516.383L518.821 291.523ZM516.033 285.909V293H514.943V285.909H516.033ZM521.609 293V285.909H522.699V293H521.609ZM525.635 288.476H527.666C528.497 288.476 529.133 288.687 529.573 289.108C530.013 289.53 530.233 290.064 530.233 290.71C530.233 291.135 530.134 291.521 529.937 291.869C529.74 292.214 529.451 292.489 529.07 292.695C528.688 292.898 528.22 293 527.666 293H524.693V285.909H525.783V291.984H527.666C528.097 291.984 528.451 291.871 528.728 291.643C529.005 291.415 529.143 291.123 529.143 290.766C529.143 290.39 529.005 290.084 528.728 289.847C528.451 289.61 528.097 289.491 527.666 289.491H525.635V288.476ZM531.359 293V285.909H532.449V293H531.359Z" fill="black"/>
<circle cx="348.886" cy="287" r="6" fill="white" stroke="#43C552" stroke-width="2"/>
<path d="M358.977 152.488V143.034H360.121V147.244H365.163V143.034H366.308V152.488H365.163V148.26H360.121V152.488H358.977ZM371.425 152.636C370.742 152.636 370.152 152.485 369.657 152.184C369.164 151.879 368.784 151.454 368.517 150.909C368.252 150.362 368.119 149.725 368.119 148.998C368.119 148.272 368.252 147.632 368.517 147.078C368.784 146.521 369.157 146.087 369.634 145.776C370.114 145.462 370.674 145.305 371.314 145.305C371.683 145.305 372.048 145.367 372.408 145.49C372.768 145.613 373.096 145.813 373.392 146.09C373.687 146.364 373.922 146.727 374.098 147.179C374.273 147.632 374.361 148.189 374.361 148.85V149.312H368.895V148.37H373.253C373.253 147.97 373.173 147.613 373.013 147.299C372.856 146.985 372.631 146.738 372.339 146.556C372.05 146.375 371.708 146.284 371.314 146.284C370.88 146.284 370.505 146.391 370.188 146.607C369.874 146.819 369.632 147.096 369.463 147.438C369.294 147.779 369.209 148.146 369.209 148.537V149.164C369.209 149.7 369.301 150.154 369.486 150.526C369.674 150.896 369.934 151.177 370.266 151.371C370.599 151.562 370.985 151.657 371.425 151.657C371.711 151.657 371.97 151.617 372.2 151.537C372.434 151.454 372.636 151.331 372.805 151.168C372.974 151.002 373.105 150.796 373.198 150.549L374.25 150.845C374.139 151.202 373.953 151.516 373.692 151.787C373.43 152.054 373.107 152.264 372.722 152.414C372.337 152.562 371.905 152.636 371.425 152.636ZM378.899 152.636C378.259 152.636 377.697 152.484 377.214 152.179C376.734 151.874 376.358 151.448 376.088 150.9C375.82 150.352 375.686 149.712 375.686 148.98C375.686 148.241 375.82 147.596 376.088 147.045C376.358 146.495 376.734 146.067 377.214 145.762C377.697 145.457 378.259 145.305 378.899 145.305C379.539 145.305 380.099 145.457 380.579 145.762C381.063 146.067 381.438 146.495 381.706 147.045C381.977 147.596 382.112 148.241 382.112 148.98C382.112 149.712 381.977 150.352 381.706 150.9C381.438 151.448 381.063 151.874 380.579 152.179C380.099 152.484 379.539 152.636 378.899 152.636ZM378.899 151.657C379.385 151.657 379.785 151.533 380.099 151.283C380.413 151.034 380.646 150.706 380.796 150.3C380.947 149.894 381.023 149.454 381.023 148.98C381.023 148.506 380.947 148.064 380.796 147.655C380.646 147.246 380.413 146.915 380.099 146.662C379.785 146.41 379.385 146.284 378.899 146.284C378.413 146.284 378.013 146.41 377.699 146.662C377.385 146.915 377.152 147.246 377.002 147.655C376.851 148.064 376.775 148.506 376.775 148.98C376.775 149.454 376.851 149.894 377.002 150.3C377.152 150.706 377.385 151.034 377.699 151.283C378.013 151.533 378.413 151.657 378.899 151.657ZM382.848 146.413V145.397H388.61V146.413H386.283V152.488H385.194V146.413H382.848ZM388.974 152.488V151.473H389.233C389.445 151.473 389.622 151.431 389.764 151.348C389.905 151.262 390.019 151.113 390.105 150.9C390.195 150.685 390.262 150.386 390.309 150.005C390.358 149.62 390.393 149.131 390.415 148.537L390.544 145.397H395.271V152.488H394.182V146.413H391.578L391.467 148.943C391.443 149.525 391.39 150.037 391.31 150.48C391.233 150.92 391.115 151.29 390.955 151.588C390.798 151.887 390.589 152.111 390.327 152.262C390.065 152.413 389.738 152.488 389.344 152.488H388.974ZM400.151 152.636C399.511 152.636 398.949 152.484 398.466 152.179C397.986 151.874 397.61 151.448 397.339 150.9C397.072 150.352 396.938 149.712 396.938 148.98C396.938 148.241 397.072 147.596 397.339 147.045C397.61 146.495 397.986 146.067 398.466 145.762C398.949 145.457 399.511 145.305 400.151 145.305C400.791 145.305 401.351 145.457 401.831 145.762C402.315 146.067 402.69 146.495 402.958 147.045C403.229 147.596 403.364 148.241 403.364 148.98C403.364 149.712 403.229 150.352 402.958 150.9C402.69 151.448 402.315 151.874 401.831 152.179C401.351 152.484 400.791 152.636 400.151 152.636ZM400.151 151.657C400.637 151.657 401.037 151.533 401.351 151.283C401.665 151.034 401.897 150.706 402.048 150.3C402.199 149.894 402.274 149.454 402.274 148.98C402.274 148.506 402.199 148.064 402.048 147.655C401.897 147.246 401.665 146.915 401.351 146.662C401.037 146.41 400.637 146.284 400.151 146.284C399.665 146.284 399.265 146.41 398.951 146.662C398.637 146.915 398.404 147.246 398.254 147.655C398.103 148.064 398.027 148.506 398.027 148.98C398.027 149.454 398.103 149.894 398.254 150.3C398.404 150.706 398.637 151.034 398.951 151.283C399.265 151.533 399.665 151.657 400.151 151.657ZM404.292 152.488L407.173 148.887L404.329 145.397H405.621L407.985 148.426H408.576V145.397H409.665V148.426H410.238L412.602 145.397H413.894L411.069 148.887L413.931 152.488H412.62L410.219 149.441H409.665V152.488H408.576V149.441H408.022L405.603 152.488H404.292ZM420.234 148.444V149.46H416.319V148.444H420.234ZM416.577 145.397V152.488H415.488V145.397H416.577ZM421.065 145.397V152.488H419.975V145.397H421.065ZM423.996 147.964H426.027C426.858 147.964 427.494 148.175 427.934 148.597C428.374 149.018 428.594 149.552 428.594 150.199C428.594 150.623 428.496 151.009 428.299 151.357C428.102 151.702 427.812 151.977 427.431 152.184C427.049 152.387 426.581 152.488 426.027 152.488H423.054V145.397H424.144V151.473H426.027C426.458 151.473 426.812 151.359 427.089 151.131C427.366 150.903 427.505 150.611 427.505 150.254C427.505 149.878 427.366 149.572 427.089 149.335C426.812 149.098 426.458 148.98 426.027 148.98H423.996V147.964ZM429.721 152.488V145.397H430.81V152.488H429.721ZM435.777 152.636C435.094 152.636 434.505 152.485 434.009 152.184C433.517 151.879 433.137 151.454 432.869 150.909C432.604 150.362 432.472 149.725 432.472 148.998C432.472 148.272 432.604 147.632 432.869 147.078C433.137 146.521 433.509 146.087 433.986 145.776C434.466 145.462 435.026 145.305 435.667 145.305C436.036 145.305 436.401 145.367 436.761 145.49C437.121 145.613 437.449 145.813 437.744 146.09C438.039 146.364 438.275 146.727 438.45 147.179C438.626 147.632 438.714 148.189 438.714 148.85V149.312H433.248V148.37H437.606C437.606 147.97 437.526 147.613 437.365 147.299C437.209 146.985 436.984 146.738 436.691 146.556C436.402 146.375 436.061 146.284 435.667 146.284C435.233 146.284 434.857 146.391 434.54 146.607C434.226 146.819 433.985 147.096 433.815 147.438C433.646 147.779 433.562 148.146 433.562 148.537V149.164C433.562 149.7 433.654 150.154 433.839 150.526C434.026 150.896 434.286 151.177 434.619 151.371C434.951 151.562 435.337 151.657 435.777 151.657C436.064 151.657 436.322 151.617 436.553 151.537C436.787 151.454 436.988 151.331 437.158 151.168C437.327 151.002 437.458 150.796 437.55 150.549L438.603 150.845C438.492 151.202 438.306 151.516 438.044 151.787C437.783 152.054 437.459 152.264 437.075 152.414C436.69 152.562 436.258 152.636 435.777 152.636ZM446.908 152.636C446.243 152.636 445.671 152.479 445.19 152.165C444.71 151.851 444.341 151.419 444.082 150.868C443.824 150.317 443.695 149.688 443.695 148.98C443.695 148.26 443.827 147.624 444.092 147.073C444.359 146.519 444.732 146.087 445.209 145.776C445.689 145.462 446.249 145.305 446.889 145.305C447.388 145.305 447.837 145.397 448.237 145.582C448.637 145.767 448.965 146.025 449.221 146.358C449.476 146.69 449.635 147.078 449.696 147.521H448.607C448.524 147.198 448.339 146.912 448.053 146.662C447.769 146.41 447.388 146.284 446.908 146.284C446.483 146.284 446.111 146.395 445.791 146.616C445.474 146.835 445.226 147.144 445.047 147.544C444.872 147.941 444.784 148.407 444.784 148.943C444.784 149.491 444.87 149.968 445.043 150.374C445.218 150.78 445.464 151.096 445.781 151.32C446.101 151.545 446.477 151.657 446.908 151.657C447.191 151.657 447.448 151.608 447.679 151.51C447.91 151.411 448.105 151.27 448.265 151.085C448.425 150.9 448.539 150.679 448.607 150.42H449.696C449.635 150.839 449.482 151.216 449.239 151.551C448.999 151.884 448.68 152.148 448.283 152.345C447.89 152.539 447.431 152.636 446.908 152.636ZM454.169 152.636C453.529 152.636 452.968 152.484 452.484 152.179C452.004 151.874 451.629 151.448 451.358 150.9C451.09 150.352 450.956 149.712 450.956 148.98C450.956 148.241 451.09 147.596 451.358 147.045C451.629 146.495 452.004 146.067 452.484 145.762C452.968 145.457 453.529 145.305 454.169 145.305C454.81 145.305 455.37 145.457 455.85 145.762C456.333 146.067 456.709 146.495 456.976 147.045C457.247 147.596 457.383 148.241 457.383 148.98C457.383 149.712 457.247 150.352 456.976 150.9C456.709 151.448 456.333 151.874 455.85 152.179C455.37 152.484 454.81 152.636 454.169 152.636ZM454.169 151.657C454.656 151.657 455.056 151.533 455.37 151.283C455.684 151.034 455.916 150.706 456.067 150.3C456.218 149.894 456.293 149.454 456.293 148.98C456.293 148.506 456.218 148.064 456.067 147.655C455.916 147.246 455.684 146.915 455.37 146.662C455.056 146.41 454.656 146.284 454.169 146.284C453.683 146.284 453.283 146.41 452.969 146.662C452.655 146.915 452.423 147.246 452.272 147.655C452.121 148.064 452.046 148.506 452.046 148.98C452.046 149.454 452.121 149.894 452.272 150.3C452.423 150.706 452.655 151.034 452.969 151.283C453.283 151.533 453.683 151.657 454.169 151.657ZM461.926 152.636C461.262 152.636 460.689 152.479 460.209 152.165C459.729 151.851 459.36 151.419 459.101 150.868C458.842 150.317 458.713 149.688 458.713 148.98C458.713 148.26 458.846 147.624 459.11 147.073C459.378 146.519 459.75 146.087 460.227 145.776C460.708 145.462 461.268 145.305 461.908 145.305C462.406 145.305 462.856 145.397 463.256 145.582C463.656 145.767 463.984 146.025 464.239 146.358C464.495 146.69 464.653 147.078 464.715 147.521H463.625C463.542 147.198 463.357 146.912 463.071 146.662C462.788 146.41 462.406 146.284 461.926 146.284C461.502 146.284 461.129 146.395 460.809 146.616C460.492 146.835 460.244 147.144 460.066 147.544C459.89 147.941 459.803 148.407 459.803 148.943C459.803 149.491 459.889 149.968 460.061 150.374C460.237 150.78 460.483 151.096 460.8 151.32C461.12 151.545 461.495 151.657 461.926 151.657C462.209 151.657 462.466 151.608 462.697 151.51C462.928 151.411 463.124 151.27 463.284 151.085C463.444 150.9 463.557 150.679 463.625 150.42H464.715C464.653 150.839 464.501 151.216 464.258 151.551C464.018 151.884 463.699 152.148 463.302 152.345C462.908 152.539 462.45 152.636 461.926 152.636ZM465.749 146.413V145.397H471.51V146.413H469.183V152.488H468.094V146.413H465.749ZM475.612 152.636C474.972 152.636 474.41 152.484 473.927 152.179C473.447 151.874 473.071 151.448 472.8 150.9C472.533 150.352 472.399 149.712 472.399 148.98C472.399 148.241 472.533 147.596 472.8 147.045C473.071 146.495 473.447 146.067 473.927 145.762C474.41 145.457 474.972 145.305 475.612 145.305C476.252 145.305 476.812 145.457 477.292 145.762C477.775 146.067 478.151 146.495 478.419 147.045C478.69 147.596 478.825 148.241 478.825 148.98C478.825 149.712 478.69 150.352 478.419 150.9C478.151 151.448 477.775 151.874 477.292 152.179C476.812 152.484 476.252 152.636 475.612 152.636ZM475.612 151.657C476.098 151.657 476.498 151.533 476.812 151.283C477.126 151.034 477.358 150.706 477.509 150.3C477.66 149.894 477.735 149.454 477.735 148.98C477.735 148.506 477.66 148.064 477.509 147.655C477.358 147.246 477.126 146.915 476.812 146.662C476.498 146.41 476.098 146.284 475.612 146.284C475.126 146.284 474.725 146.41 474.412 146.662C474.098 146.915 473.865 147.246 473.714 147.655C473.564 148.064 473.488 148.506 473.488 148.98C473.488 149.454 473.564 149.894 473.714 150.3C473.865 150.706 474.098 151.034 474.412 151.283C474.725 151.533 475.126 151.657 475.612 151.657ZM484.754 152.488V146.395H482.87C482.445 146.395 482.111 146.493 481.868 146.69C481.625 146.887 481.504 147.158 481.504 147.502C481.504 147.841 481.613 148.107 481.831 148.301C482.053 148.495 482.356 148.592 482.741 148.592H485.031V149.608H482.741C482.261 149.608 481.847 149.523 481.499 149.354C481.151 149.184 480.883 148.943 480.696 148.629C480.508 148.312 480.414 147.936 480.414 147.502C480.414 147.065 480.513 146.69 480.71 146.376C480.907 146.062 481.188 145.821 481.554 145.651C481.924 145.482 482.362 145.397 482.87 145.397H485.788V152.488H484.754ZM480.026 152.488L482.039 148.961H483.221L481.208 152.488H480.026ZM492.534 148.444V149.46H488.619V148.444H492.534ZM488.877 145.397V152.488H487.788V145.397H488.877ZM493.365 145.397V152.488H492.275V145.397H493.365ZM496.444 150.882L499.86 145.397H501.116V152.488H500.026V147.004L496.628 152.488H495.354V145.397H496.444V150.882ZM507.377 152.488V146.395H505.493C505.068 146.395 504.735 146.493 504.491 146.69C504.248 146.887 504.127 147.158 504.127 147.502C504.127 147.841 504.236 148.107 504.454 148.301C504.676 148.495 504.979 148.592 505.364 148.592H507.654V149.608H505.364C504.884 149.608 504.47 149.523 504.122 149.354C503.774 149.184 503.507 148.943 503.319 148.629C503.131 148.312 503.037 147.936 503.037 147.502C503.037 147.065 503.136 146.69 503.333 146.376C503.53 146.062 503.811 145.821 504.177 145.651C504.547 145.482 504.985 145.397 505.493 145.397H508.411V152.488H507.377ZM502.649 152.488L504.662 148.961H505.844L503.831 152.488H502.649Z" fill="black"/>
<circle cx="349.332" cy="146.488" r="6" fill="white" stroke="#43C552" stroke-width="2"/>
<path d="M60.1515 63.4715C60.1515 64.4687 59.9714 65.3304 59.6113 66.0567C59.2512 66.7831 58.7573 67.3432 58.1294 67.7371C57.5016 68.1311 56.7845 68.3281 55.9782 68.3281C55.1718 68.3281 54.4547 68.1311 53.8269 67.7371C53.199 67.3432 52.7051 66.7831 52.345 66.0567C51.9849 65.3304 51.8049 64.4687 51.8049 63.4715C51.8049 62.4744 51.9849 61.6126 52.345 60.8863C52.7051 60.16 53.199 59.5998 53.8269 59.2059C54.4547 58.812 55.1718 58.615 55.9782 58.615C56.7845 58.615 57.5016 58.812 58.1294 59.2059C58.7573 59.5998 59.2512 60.16 59.6113 60.8863C59.9714 61.6126 60.1515 62.4744 60.1515 63.4715ZM59.0435 63.4715C59.0435 62.6529 58.9065 61.9619 58.6326 61.3987C58.3618 60.8355 57.994 60.4093 57.5293 60.12C57.0676 59.8307 56.5506 59.686 55.9782 59.686C55.4057 59.686 54.8871 59.8307 54.4224 60.12C53.9608 60.4093 53.593 60.8355 53.3191 61.3987C53.0482 61.9619 52.9128 62.6529 52.9128 63.4715C52.9128 64.2902 53.0482 64.9811 53.3191 65.5443C53.593 66.1075 53.9608 66.5338 54.4224 66.8231C54.8871 67.1124 55.4057 67.257 55.9782 67.257C56.5506 67.257 57.0676 67.1124 57.5293 66.8231C57.994 66.5338 58.3618 66.1075 58.6326 65.5443C58.9065 64.9811 59.0435 64.2902 59.0435 63.4715ZM67.1916 58.4488L67.7456 59.1136C67.5301 59.3228 67.2808 59.469 66.9977 59.5521C66.7145 59.6352 66.3945 59.686 66.0375 59.7045C65.6805 59.7229 65.2834 59.7414 64.8464 59.7599C64.354 59.7783 63.9462 59.8984 63.623 60.12C63.2999 60.3415 63.0506 60.6616 62.8752 61.0802C62.6998 61.4987 62.5874 62.0127 62.5382 62.6221H62.6305C62.8706 62.1789 63.2029 61.8527 63.6277 61.6434C64.0524 61.4341 64.5079 61.3295 64.9941 61.3295C65.5481 61.3295 66.0467 61.4587 66.4899 61.7173C66.9331 61.9758 67.2839 62.3589 67.5424 62.8668C67.801 63.3746 67.9302 64.0009 67.9302 64.7457C67.9302 65.4874 67.7979 66.1275 67.5332 66.6661C67.2716 67.2047 66.9038 67.6202 66.4299 67.9126C65.959 68.2019 65.4065 68.3465 64.7725 68.3465C64.1386 68.3465 63.583 68.1973 63.106 67.8987C62.629 67.5971 62.2581 67.1509 61.9934 66.5599C61.7288 65.966 61.5964 65.2319 61.5964 64.3579V63.6008C61.5964 62.0219 61.8642 60.8247 62.3997 60.0092C62.9383 59.1936 63.7477 58.7719 64.8279 58.7442C65.2096 58.7319 65.5497 58.7289 65.8482 58.735C66.1467 58.7412 66.4068 58.7273 66.6284 58.6935C66.85 58.6596 67.0377 58.5781 67.1916 58.4488ZM64.7725 67.3678C65.2003 67.3678 65.5681 67.2601 65.8759 67.0447C66.1867 66.8292 66.4252 66.5261 66.5914 66.1352C66.7576 65.7413 66.8407 65.2781 66.8407 64.7457C66.8407 64.2286 66.7561 63.7885 66.5868 63.4254C66.4206 63.0622 66.1821 62.7852 65.8713 62.5944C65.5604 62.4036 65.188 62.3082 64.7541 62.3082C64.4371 62.3082 64.1524 62.362 63.9 62.4697C63.6477 62.5775 63.4322 62.736 63.2537 62.9452C63.0752 63.1545 62.9367 63.41 62.8382 63.7116C62.7428 64.0132 62.6921 64.3579 62.6859 64.7457C62.6859 65.5397 62.8721 66.1752 63.2445 66.6523C63.6169 67.1293 64.1262 67.3678 64.7725 67.3678ZM70.2985 70.8579C70.1138 70.8579 69.9492 70.8425 69.8045 70.8117C69.6599 70.784 69.5598 70.7563 69.5044 70.7286L69.7814 69.7684C70.0461 69.8361 70.28 69.8607 70.4831 69.8423C70.6863 69.8238 70.8663 69.733 71.0233 69.5699C71.1833 69.4098 71.3295 69.1498 71.4618 68.7897L71.665 68.2357L69.0428 61.1079H70.2246L72.182 66.7585H72.2559L74.2132 61.1079H75.3951L72.3851 69.2329C72.2497 69.5991 72.082 69.9023 71.8819 70.1423C71.6819 70.3855 71.4495 70.5655 71.1848 70.6825C70.9232 70.7994 70.6278 70.8579 70.2985 70.8579ZM82.0832 61.1079V68.1988H80.9937V61.1079H82.0832ZM81.6585 64.4871V65.5028C81.4123 65.5951 81.1676 65.6767 80.9244 65.7474C80.6813 65.8152 80.4259 65.869 80.1581 65.909C79.8904 65.946 79.5964 65.9644 79.2764 65.9644C78.4731 65.9644 77.8283 65.7474 77.3421 65.3135C76.8589 64.8795 76.6173 64.2286 76.6173 63.3607V61.0894H77.7068V63.3607C77.7068 63.7239 77.776 64.0224 77.9145 64.2563C78.053 64.4902 78.2407 64.6641 78.4777 64.778C78.7147 64.8919 78.9809 64.9488 79.2764 64.9488C79.738 64.9488 80.155 64.9072 80.5274 64.8241C80.9029 64.738 81.2799 64.6256 81.6585 64.4871ZM87.0551 68.3465C86.3719 68.3465 85.7825 68.1957 85.287 67.8941C84.7946 67.5894 84.4145 67.1647 84.1468 66.62C83.8821 66.0721 83.7497 65.4351 83.7497 64.7087C83.7497 63.9824 83.8821 63.3423 84.1468 62.7883C84.4145 62.2312 84.7869 61.7973 85.2639 61.4864C85.7441 61.1725 86.3042 61.0156 86.9443 61.0156C87.3137 61.0156 87.6784 61.0771 88.0384 61.2002C88.3985 61.3233 88.7263 61.5234 89.0218 61.8004C89.3172 62.0743 89.5526 62.4374 89.7281 62.8898C89.9035 63.3423 89.9912 63.8993 89.9912 64.561V65.0227H84.5253V64.0809H88.8833C88.8833 63.6808 88.8032 63.3238 88.6432 63.0099C88.4862 62.696 88.2616 62.4482 87.9692 62.2666C87.6799 62.085 87.3383 61.9942 86.9443 61.9942C86.5104 61.9942 86.1349 62.102 85.8179 62.3174C85.504 62.5298 85.2624 62.8067 85.0931 63.1484C84.9239 63.49 84.8392 63.8562 84.8392 64.2471V64.8749C84.8392 65.4104 84.9316 65.8644 85.1162 66.2368C85.3039 66.6061 85.564 66.8877 85.8964 67.0816C86.2288 67.2724 86.615 67.3678 87.0551 67.3678C87.3414 67.3678 87.5999 67.3278 87.8307 67.2478C88.0646 67.1647 88.2662 67.0416 88.4355 66.8785C88.6047 66.7123 88.7355 66.5061 88.8279 66.2599L89.8804 66.5553C89.7696 66.9123 89.5834 67.2263 89.3218 67.4971C89.0602 67.7648 88.7371 67.9741 88.3524 68.1249C87.9677 68.2727 87.5352 68.3465 87.0551 68.3465ZM96.3943 64.1548V65.1704H92.4795V64.1548H96.3943ZM92.738 61.1079V68.1988H91.6485V61.1079H92.738ZM97.2252 61.1079V68.1988H96.1357V61.1079H97.2252ZM100.304 66.5923L103.721 61.1079H104.976V68.1988H103.887V62.7144L100.489 68.1988H99.2149V61.1079H100.304V66.5923ZM109.945 68.3465C109.262 68.3465 108.672 68.1957 108.177 67.8941C107.684 67.5894 107.304 67.1647 107.036 66.62C106.772 66.0721 106.639 65.4351 106.639 64.7087C106.639 63.9824 106.772 63.3423 107.036 62.7883C107.304 62.2312 107.677 61.7973 108.154 61.4864C108.634 61.1725 109.194 61.0156 109.834 61.0156C110.203 61.0156 110.568 61.0771 110.928 61.2002C111.288 61.3233 111.616 61.5234 111.911 61.8004C112.207 62.0743 112.442 62.4374 112.618 62.8898C112.793 63.3423 112.881 63.8993 112.881 64.561V65.0227H107.415V64.0809H111.773C111.773 63.6808 111.693 63.3238 111.533 63.0099C111.376 62.696 111.151 62.4482 110.859 62.2666C110.57 62.085 110.228 61.9942 109.834 61.9942C109.4 61.9942 109.025 62.102 108.708 62.3174C108.394 62.5298 108.152 62.8067 107.983 63.1484C107.814 63.49 107.729 63.8562 107.729 64.2471V64.8749C107.729 65.4104 107.821 65.8644 108.006 66.2368C108.194 66.6061 108.454 66.8877 108.786 67.0816C109.118 67.2724 109.505 67.3678 109.945 67.3678C110.231 67.3678 110.49 67.3278 110.72 67.2478C110.954 67.1647 111.156 67.0416 111.325 66.8785C111.494 66.7123 111.625 66.5061 111.718 66.2599L112.77 66.5553C112.659 66.9123 112.473 67.2263 112.211 67.4971C111.95 67.7648 111.627 67.9741 111.242 68.1249C110.857 68.2727 110.425 68.3465 109.945 68.3465ZM118.194 68.1988V61.1079H123.771V68.1988H122.682V62.1235H119.284V68.1988H118.194ZM128.734 68.3465C128.051 68.3465 127.461 68.1957 126.966 67.8941C126.473 67.5894 126.093 67.1647 125.825 66.62C125.561 66.0721 125.428 65.4351 125.428 64.7087C125.428 63.9824 125.561 63.3423 125.825 62.7883C126.093 62.2312 126.466 61.7973 126.943 61.4864C127.423 61.1725 127.983 61.0156 128.623 61.0156C128.992 61.0156 129.357 61.0771 129.717 61.2002C130.077 61.3233 130.405 61.5234 130.7 61.8004C130.996 62.0743 131.231 62.4374 131.407 62.8898C131.582 63.3423 131.67 63.8993 131.67 64.561V65.0227H126.204V64.0809H130.562C130.562 63.6808 130.482 63.3238 130.322 63.0099C130.165 62.696 129.94 62.4482 129.648 62.2666C129.359 62.085 129.017 61.9942 128.623 61.9942C128.189 61.9942 127.814 62.102 127.497 62.3174C127.183 62.5298 126.941 62.8067 126.772 63.1484C126.603 63.49 126.518 63.8562 126.518 64.2471V64.8749C126.518 65.4104 126.61 65.8644 126.795 66.2368C126.983 66.6061 127.243 66.8877 127.575 67.0816C127.907 67.2724 128.294 67.3678 128.734 67.3678C129.02 67.3678 129.279 67.3278 129.509 67.2478C129.743 67.1647 129.945 67.0416 130.114 66.8785C130.283 66.7123 130.414 66.5061 130.507 66.2599L131.559 66.5553C131.448 66.9123 131.262 67.2263 131.001 67.4971C130.739 67.7648 130.416 67.9741 130.031 68.1249C129.646 68.2727 129.214 68.3465 128.734 68.3465ZM133.327 70.8579V61.1079H134.38V62.2343H134.509C134.589 62.1112 134.7 61.9542 134.841 61.7634C134.986 61.5695 135.192 61.3972 135.46 61.2464C135.731 61.0925 136.097 61.0156 136.559 61.0156C137.156 61.0156 137.682 61.1648 138.138 61.4634C138.593 61.7619 138.949 62.1851 139.204 62.7329C139.459 63.2807 139.587 63.927 139.587 64.6718C139.587 65.4227 139.459 66.0737 139.204 66.6246C138.949 67.1724 138.595 67.5971 138.142 67.8987C137.69 68.1973 137.168 68.3465 136.577 68.3465C136.122 68.3465 135.757 68.2711 135.483 68.1203C135.209 67.9664 134.998 67.7925 134.851 67.5986C134.703 67.4017 134.589 67.2386 134.509 67.1093H134.417V70.8579H133.327ZM134.398 64.6533C134.398 65.1888 134.477 65.6613 134.634 66.0706C134.791 66.4768 135.02 66.7954 135.322 67.0262C135.623 67.254 135.992 67.3678 136.43 67.3678C136.885 67.3678 137.265 67.2478 137.57 67.0077C137.878 66.7646 138.108 66.4384 138.262 66.029C138.419 65.6166 138.498 65.1581 138.498 64.6533C138.498 64.1548 138.421 63.7054 138.267 63.3053C138.116 62.9022 137.887 62.5836 137.579 62.3497C137.274 62.1127 136.891 61.9942 136.43 61.9942C135.986 61.9942 135.614 62.1066 135.312 62.3312C135.011 62.5528 134.783 62.8637 134.629 63.2638C134.475 63.6608 134.398 64.124 134.398 64.6533ZM141.249 68.1988V61.1079H144.148C144.912 61.1079 145.518 61.2802 145.967 61.6249C146.416 61.9696 146.641 62.4251 146.641 62.9914C146.641 63.4223 146.513 63.7562 146.258 63.9932C146.003 64.2271 145.675 64.3856 145.275 64.4687C145.536 64.5056 145.79 64.5979 146.036 64.7457C146.286 64.8934 146.492 65.0965 146.655 65.355C146.818 65.6105 146.9 65.9244 146.9 66.2968C146.9 66.66 146.807 66.9847 146.623 67.2709C146.438 67.5571 146.173 67.7833 145.829 67.9495C145.484 68.1157 145.072 68.1988 144.591 68.1988H141.249ZM142.283 67.2016H144.591C144.967 67.2016 145.261 67.1124 145.473 66.9339C145.686 66.7554 145.792 66.5122 145.792 66.2045C145.792 65.8382 145.686 65.5505 145.473 65.3412C145.261 65.1288 144.967 65.0227 144.591 65.0227H142.283V67.2016ZM142.283 64.0809H144.148C144.441 64.0809 144.691 64.0409 144.901 63.9609C145.11 63.8778 145.27 63.7608 145.381 63.61C145.495 63.4561 145.552 63.2745 145.552 63.0653C145.552 62.7667 145.427 62.5328 145.178 62.3636C144.928 62.1912 144.585 62.105 144.148 62.105H142.283V64.0809ZM151.43 68.3465C150.789 68.3465 150.228 68.1942 149.745 67.8895C149.264 67.5848 148.889 67.1585 148.618 66.6107C148.35 66.0629 148.217 65.4227 148.217 64.6903C148.217 63.9516 148.35 63.3069 148.618 62.756C148.889 62.2051 149.264 61.7773 149.745 61.4726C150.228 61.1679 150.789 61.0156 151.43 61.0156C152.07 61.0156 152.63 61.1679 153.11 61.4726C153.593 61.7773 153.969 62.2051 154.236 62.756C154.507 63.3069 154.643 63.9516 154.643 64.6903C154.643 65.4227 154.507 66.0629 154.236 66.6107C153.969 67.1585 153.593 67.5848 153.11 67.8895C152.63 68.1942 152.07 68.3465 151.43 68.3465ZM151.43 67.3678C151.916 67.3678 152.316 67.2432 152.63 66.9939C152.944 66.7446 153.176 66.4168 153.327 66.0106C153.478 65.6043 153.553 65.1642 153.553 64.6903C153.553 64.2163 153.478 63.7747 153.327 63.3653C153.176 62.956 152.944 62.6252 152.63 62.3728C152.316 62.1204 151.916 61.9942 151.43 61.9942C150.943 61.9942 150.543 62.1204 150.229 62.3728C149.915 62.6252 149.683 62.956 149.532 63.3653C149.381 63.7747 149.306 64.2163 149.306 64.6903C149.306 65.1642 149.381 65.6043 149.532 66.0106C149.683 66.4168 149.915 66.7446 150.229 66.9939C150.543 67.2432 150.943 67.3678 151.43 67.3678ZM157.395 66.5923L160.811 61.1079H162.067V68.1988H160.978V62.7144L157.58 68.1988H156.306V61.1079H157.395V66.5923ZM160.091 58.7442H161.107C161.107 59.2428 160.935 59.6506 160.59 59.9676C160.245 60.2846 159.777 60.4431 159.186 60.4431C158.605 60.4431 158.142 60.2846 157.797 59.9676C157.455 59.6506 157.284 59.2428 157.284 58.7442H158.3C158.3 58.9843 158.366 59.1951 158.499 59.3767C158.634 59.5583 158.863 59.6491 159.186 59.6491C159.51 59.6491 159.74 59.5583 159.879 59.3767C160.02 59.1951 160.091 58.9843 160.091 58.7442ZM167.719 68.1988V61.1079H173.296V68.1988H172.206V62.1235H168.808V68.1988H167.719ZM178.166 68.3465C177.526 68.3465 176.964 68.1942 176.481 67.8895C176.001 67.5848 175.625 67.1585 175.354 66.6107C175.087 66.0629 174.953 65.4227 174.953 64.6903C174.953 63.9516 175.087 63.3069 175.354 62.756C175.625 62.2051 176.001 61.7773 176.481 61.4726C176.964 61.1679 177.526 61.0156 178.166 61.0156C178.806 61.0156 179.366 61.1679 179.846 61.4726C180.33 61.7773 180.705 62.2051 180.973 62.756C181.244 63.3069 181.379 63.9516 181.379 64.6903C181.379 65.4227 181.244 66.0629 180.973 66.6107C180.705 67.1585 180.33 67.5848 179.846 67.8895C179.366 68.1942 178.806 68.3465 178.166 68.3465ZM178.166 67.3678C178.652 67.3678 179.052 67.2432 179.366 66.9939C179.68 66.7446 179.912 66.4168 180.063 66.0106C180.214 65.6043 180.29 65.1642 180.29 64.6903C180.29 64.2163 180.214 63.7747 180.063 63.3653C179.912 62.956 179.68 62.6252 179.366 62.3728C179.052 62.1204 178.652 61.9942 178.166 61.9942C177.68 61.9942 177.28 62.1204 176.966 62.3728C176.652 62.6252 176.419 62.956 176.269 63.3653C176.118 63.7747 176.042 64.2163 176.042 64.6903C176.042 65.1642 176.118 65.6043 176.269 66.0106C176.419 66.4168 176.652 66.7446 176.966 66.9939C177.28 67.2432 177.68 67.3678 178.166 67.3678ZM186.92 66.7215L189.394 61.1079H190.428L187.363 68.1988H186.477L183.467 61.1079H184.482L186.92 66.7215ZM184.132 61.1079V68.1988H183.042V61.1079H184.132ZM189.708 68.1988V61.1079H190.798V68.1988H189.708ZM195.673 68.3465C195.033 68.3465 194.471 68.1942 193.988 67.8895C193.508 67.5848 193.132 67.1585 192.861 66.6107C192.594 66.0629 192.46 65.4227 192.46 64.6903C192.46 63.9516 192.594 63.3069 192.861 62.756C193.132 62.2051 193.508 61.7773 193.988 61.4726C194.471 61.1679 195.033 61.0156 195.673 61.0156C196.313 61.0156 196.873 61.1679 197.353 61.4726C197.836 61.7773 198.212 62.2051 198.48 62.756C198.75 63.3069 198.886 63.9516 198.886 64.6903C198.886 65.4227 198.75 66.0629 198.48 66.6107C198.212 67.1585 197.836 67.5848 197.353 67.8895C196.873 68.1942 196.313 68.3465 195.673 68.3465ZM195.673 67.3678C196.159 67.3678 196.559 67.2432 196.873 66.9939C197.187 66.7446 197.419 66.4168 197.57 66.0106C197.721 65.6043 197.796 65.1642 197.796 64.6903C197.796 64.2163 197.721 63.7747 197.57 63.3653C197.419 62.956 197.187 62.6252 196.873 62.3728C196.559 62.1204 196.159 61.9942 195.673 61.9942C195.186 61.9942 194.786 62.1204 194.472 62.3728C194.159 62.6252 193.926 62.956 193.775 63.3653C193.625 63.7747 193.549 64.2163 193.549 64.6903C193.549 65.1642 193.625 65.6043 193.775 66.0106C193.926 66.4168 194.159 66.7446 194.472 66.9939C194.786 67.2432 195.186 67.3678 195.673 67.3678ZM210.225 67.1832L210.096 70.23H208.969V68.1988H208.046V67.1832H210.225ZM200.549 61.1079H201.638V67.1832H204.316V61.1079H205.405V67.1832H208.083V61.1079H209.172V68.1988H200.549V61.1079ZM212.899 66.5923L216.315 61.1079H217.571V68.1988H216.482V62.7144L213.084 68.1988H211.81V61.1079H212.899V66.5923Z" fill="black"/>
<circle cx="229.217" cy="64.1988" r="6" fill="white" stroke="#43C552" stroke-width="2"/>
<rect x="284.282" width="4" height="74" transform="rotate(42.5756 284.282 0)" fill="#6B6B6B"/>
<rect x="284.282" y="154" width="4" height="74" transform="rotate(42.5756 284.282 154)" fill="#6B6B6B"/>
<rect x="285.282" y="283" width="4" height="74" transform="rotate(42.5756 285.282 283)" fill="#6B6B6B"/>
<rect x="341.886" y="138.516" width="4" height="74" transform="rotate(132 341.886 138.516)" fill="#6B6B6B"/>
<rect x="341.886" y="278.516" width="4" height="74" transform="rotate(132 341.886 278.516)" fill="#6B6B6B"/>
<rect x="284.217" width="4" height="286" fill="#6B6B6B"/>
</svg>
